<svg xmlns="http://www.w3.org/2000/svg" xmlns:xlink="http://www.w3.org/1999/xlink" width="500" zoomAndPan="magnify" viewBox="0 0 375 374.999991" height="500" preserveAspectRatio="xMidYMid meet" version="1.0"><defs><clipPath id="f1b2d767d9"><path d="M 69.417969 144 L 91 144 L 91 166 L 69.417969 166 Z M 69.417969 144 " clip-rule="nonzero"/></clipPath></defs><rect x="-37.5" width="450" fill="#ffffff" y="-37.499999" height="449.999989" fill-opacity="1"/><rect x="-37.5" width="450" fill="#ffffff" y="-37.499999" height="449.999989" fill-opacity="1"/><path fill="#ffdf86" d="M 277.269531 151.160156 L 279.066406 144.375 C 279.207031 143.960938 279.621094 143.820312 280.035156 143.960938 C 280.242188 144.03125 280.382812 144.167969 280.449219 144.375 L 282.25 151.160156 C 282.316406 151.4375 282.523438 151.644531 282.800781 151.714844 L 289.582031 153.515625 C 289.996094 153.582031 290.203125 154 290.132812 154.414062 C 290.066406 154.691406 289.855469 154.898438 289.582031 154.96875 L 282.800781 156.769531 C 282.523438 156.839844 282.316406 157.046875 282.25 157.324219 L 280.449219 164.109375 C 280.3125 164.523438 279.898438 164.660156 279.480469 164.523438 C 279.273438 164.453125 279.136719 164.316406 279.066406 164.109375 L 277.269531 157.324219 C 277.199219 157.046875 276.992188 156.839844 276.785156 156.769531 L 270.003906 154.96875 C 269.589844 154.898438 269.382812 154.484375 269.453125 154.070312 C 269.523438 153.792969 269.730469 153.582031 270.003906 153.515625 L 276.785156 151.714844 C 276.992188 151.644531 277.199219 151.4375 277.269531 151.160156 Z M 277.269531 151.160156 " fill-opacity="1" fill-rule="nonzero"/><g clip-path="url(#f1b2d767d9)"><path fill="#ffdf86" d="M 77.578125 152.0625 L 79.378906 145.277344 C 79.515625 144.859375 79.929688 144.722656 80.34375 144.859375 C 80.554688 144.929688 80.691406 145.066406 80.761719 145.277344 L 82.558594 152.0625 C 82.628906 152.335938 82.835938 152.546875 83.113281 152.546875 L 89.890625 154.34375 C 90.304688 154.484375 90.445312 154.898438 90.304688 155.316406 C 90.238281 155.523438 90.097656 155.660156 89.890625 155.730469 L 83.113281 157.53125 C 82.835938 157.601562 82.628906 157.808594 82.558594 158.085938 L 80.828125 164.9375 C 80.691406 165.355469 80.277344 165.492188 79.859375 165.355469 C 79.652344 165.285156 79.515625 165.144531 79.445312 164.9375 L 77.648438 158.152344 C 77.578125 157.875 77.371094 157.738281 77.09375 157.597656 L 70.316406 155.800781 C 69.902344 155.660156 69.695312 155.246094 69.832031 154.898438 C 69.902344 154.691406 70.109375 154.484375 70.316406 154.414062 L 77.09375 152.613281 C 77.300781 152.476562 77.507812 152.269531 77.578125 152.0625 Z M 77.578125 152.0625 " fill-opacity="1" fill-rule="nonzero"/></g><path fill="#ffdf86" d="M 261.289062 176.222656 L 262.742188 170.753906 C 262.8125 170.410156 263.15625 170.269531 263.503906 170.339844 C 263.710938 170.410156 263.851562 170.546875 263.917969 170.753906 L 265.371094 176.222656 C 265.441406 176.433594 265.578125 176.570312 265.785156 176.640625 L 271.25 178.09375 C 271.597656 178.164062 271.734375 178.507812 271.664062 178.785156 C 271.597656 178.992188 271.457031 179.132812 271.25 179.199219 L 265.785156 180.65625 C 265.578125 180.722656 265.441406 180.863281 265.371094 181.070312 L 263.917969 186.539062 C 263.851562 186.886719 263.503906 187.023438 263.15625 186.957031 C 262.949219 186.886719 262.8125 186.746094 262.742188 186.539062 L 261.289062 181.070312 C 261.222656 180.863281 261.082031 180.722656 260.875 180.65625 L 255.410156 179.199219 C 255.066406 179.132812 254.925781 178.785156 254.996094 178.507812 C 255.066406 178.300781 255.203125 178.164062 255.410156 178.09375 L 260.875 176.640625 C 261.082031 176.570312 261.222656 176.433594 261.289062 176.222656 Z M 261.289062 176.222656 " fill-opacity="1" fill-rule="nonzero"/><path fill="#ffdf86" d="M 96.738281 186.816406 L 98.191406 181.347656 C 98.261719 181 98.605469 180.863281 98.953125 180.933594 C 99.160156 181 99.296875 181.140625 99.367188 181.347656 L 100.820312 186.816406 C 100.886719 187.023438 101.027344 187.164062 101.234375 187.234375 L 106.699219 188.6875 C 107.042969 188.753906 107.183594 189.101562 107.113281 189.378906 C 107.042969 189.585938 106.90625 189.726562 106.699219 189.792969 L 101.234375 191.25 C 101.027344 191.316406 100.886719 191.457031 100.820312 191.664062 L 99.367188 197.132812 C 99.296875 197.480469 98.953125 197.617188 98.605469 197.546875 C 98.398438 197.480469 98.261719 197.339844 98.191406 197.132812 L 96.738281 191.664062 C 96.667969 191.457031 96.53125 191.316406 96.324219 191.25 L 90.929688 189.792969 C 90.582031 189.726562 90.445312 189.378906 90.511719 189.101562 C 90.582031 188.894531 90.71875 188.753906 90.929688 188.6875 L 96.390625 187.234375 C 96.53125 187.164062 96.667969 187.023438 96.738281 186.816406 Z M 96.738281 186.816406 " fill-opacity="1" fill-rule="nonzero"/><path fill="#d78b6a" d="M 134.574219 204.332031 C 134.574219 204.332031 121.640625 212.851562 115.828125 230.574219 C 110.019531 248.296875 105.109375 286.515625 105.109375 286.515625 L 131.183594 288.871094 C 131.183594 288.800781 151.242188 220.8125 134.574219 204.332031 Z M 134.574219 204.332031 " fill-opacity="1" fill-rule="nonzero"/><path fill="#efefef" d="M 137.546875 202.1875 C 131.390625 205.234375 125.996094 209.527344 121.707031 214.859375 C 115.757812 222.335938 113.960938 229.535156 110.710938 243.175781 C 108.636719 252.035156 107.875 257.992188 105.109375 277.101562 C 107.527344 278.761719 110.226562 280.214844 112.992188 281.253906 C 115.96875 282.429688 129.039062 287.484375 137.339844 281.808594 C 139.484375 280.355469 140.316406 278.832031 147.023438 264.152344 C 147.09375 264.152344 147.230469 265.46875 137.546875 202.1875 Z M 137.546875 202.1875 " fill-opacity="1" fill-rule="nonzero"/><path fill="#d78b6a" d="M 236.183594 203.710938 C 236.183594 203.710938 249.117188 212.226562 254.925781 229.949219 C 260.738281 247.675781 265.648438 285.894531 265.648438 285.894531 L 239.570312 288.246094 C 239.570312 288.179688 219.582031 220.1875 236.183594 203.710938 Z M 236.183594 203.710938 " fill-opacity="1" fill-rule="nonzero"/><path fill="#efefef" d="M 233.277344 201.5625 C 239.433594 204.609375 244.828125 208.902344 249.117188 214.234375 C 255.066406 221.710938 256.863281 228.84375 260.113281 242.550781 C 262.191406 251.414062 262.949219 257.367188 265.71875 276.476562 C 263.296875 278.207031 260.667969 279.59375 257.832031 280.699219 C 254.859375 281.878906 241.785156 286.933594 233.484375 281.253906 C 231.410156 279.800781 230.511719 278.277344 223.800781 263.597656 C 223.871094 263.53125 223.523438 265.121094 233.277344 201.5625 Z M 233.277344 201.5625 " fill-opacity="1" fill-rule="nonzero"/><path fill="#4e3c4b" d="M 128.417969 133.992188 C 131.183594 146.175781 128.761719 158.984375 121.640625 169.300781 C 128.003906 175.394531 135.335938 180.378906 143.289062 183.976562 C 162.585938 192.703125 180.226562 190.902344 196.546875 189.171875 C 213.21875 187.441406 229.609375 183.148438 245.035156 176.5 C 242.476562 171.03125 240.679688 165.214844 239.640625 159.261719 C 239.640625 159.261719 237.910156 148.597656 242.960938 116.472656 C 243.03125 116.472656 244.136719 116.335938 128.417969 133.992188 Z M 128.417969 133.992188 " fill-opacity="1" fill-rule="nonzero"/><path fill="#ce6e4d" d="M 136.855469 125.058594 C 136.304688 124.574219 133.535156 121.875 129.457031 122.21875 C 128.832031 122.289062 126.550781 122.429688 124.890625 123.882812 C 119.289062 129.074219 124.128906 149.359375 139.070312 142.367188 Z M 136.855469 125.058594 " fill-opacity="1" fill-rule="nonzero"/><path fill="#000000" d="M 132.292969 139.320312 C 132.222656 139.320312 132.082031 139.253906 132.015625 139.253906 C 128.554688 135.859375 128.902344 132.257812 132.292969 129.421875 L 126.550781 129.699219 C 126.34375 129.699219 126.203125 129.558594 126.203125 129.351562 C 126.203125 129.144531 126.34375 129.003906 126.550781 129.003906 L 133.398438 128.660156 C 133.605469 128.660156 133.742188 128.796875 133.742188 129.003906 C 133.742188 129.144531 133.675781 129.28125 133.605469 129.351562 C 133.605469 129.351562 130.632812 131.289062 130.355469 134.058594 C 130.214844 135.652344 130.90625 137.246094 132.566406 138.835938 C 132.707031 138.976562 132.707031 139.183594 132.566406 139.320312 C 132.5 139.253906 132.429688 139.320312 132.292969 139.320312 Z M 132.292969 139.320312 " fill-opacity="1" fill-rule="nonzero"/><path fill="#ce6e4d" d="M 233.070312 126.789062 C 233.625 126.304688 236.667969 123.882812 240.679688 124.503906 C 241.300781 124.574219 243.582031 124.921875 245.105469 126.511719 C 250.292969 132.121094 244 151.992188 229.542969 143.890625 C 230.71875 138.214844 231.894531 132.46875 233.070312 126.789062 Z M 233.070312 126.789062 " fill-opacity="1" fill-rule="nonzero"/><path fill="#000000" d="M 236.527344 141.398438 C 236.320312 141.398438 236.183594 141.261719 236.183594 141.050781 C 236.183594 140.914062 236.25 140.84375 236.320312 140.773438 C 238.050781 139.320312 238.949219 137.796875 238.878906 136.207031 C 238.8125 133.4375 235.976562 131.289062 235.976562 131.289062 C 235.835938 131.152344 235.765625 130.945312 235.90625 130.804688 C 235.976562 130.667969 236.113281 130.667969 236.25 130.667969 L 243.097656 131.496094 C 243.308594 131.496094 243.445312 131.707031 243.375 131.84375 C 243.375 132.050781 243.167969 132.191406 242.960938 132.121094 L 237.289062 131.429688 C 240.402344 134.476562 240.539062 138.144531 236.804688 141.261719 C 236.734375 141.398438 236.667969 141.398438 236.527344 141.398438 Z M 236.527344 141.398438 " fill-opacity="1" fill-rule="nonzero"/><path fill="#d78b6a" d="M 240.054688 113.773438 C 240.054688 115.542969 239.96875 117.3125 239.796875 119.074219 C 239.621094 120.835938 239.363281 122.585938 239.019531 124.324219 C 238.671875 126.058594 238.242188 127.773438 237.730469 129.46875 C 237.214844 131.164062 236.621094 132.832031 235.945312 134.464844 C 235.265625 136.101562 234.511719 137.703125 233.675781 139.261719 C 232.84375 140.824219 231.933594 142.34375 230.953125 143.816406 C 229.96875 145.289062 228.917969 146.707031 227.792969 148.078125 C 226.671875 149.445312 225.484375 150.757812 224.234375 152.007812 C 222.984375 153.261719 221.671875 154.449219 220.304688 155.574219 C 218.9375 156.695312 217.519531 157.75 216.046875 158.734375 C 214.578125 159.71875 213.0625 160.625 211.5 161.460938 C 209.941406 162.296875 208.34375 163.050781 206.707031 163.730469 C 205.074219 164.40625 203.410156 165.003906 201.714844 165.519531 C 200.023438 166.03125 198.308594 166.460938 196.574219 166.808594 C 194.839844 167.152344 193.089844 167.414062 191.328125 167.585938 C 189.570312 167.757812 187.804688 167.847656 186.035156 167.847656 C 184.265625 167.847656 182.5 167.757812 180.738281 167.585938 C 178.980469 167.414062 177.230469 167.152344 175.496094 166.808594 C 173.761719 166.460938 172.046875 166.03125 170.355469 165.519531 C 168.660156 165.003906 166.996094 164.40625 165.363281 163.730469 C 163.726562 163.050781 162.128906 162.296875 160.570312 161.460938 C 159.007812 160.625 157.492188 159.71875 156.023438 158.734375 C 154.550781 157.75 153.132812 156.695312 151.765625 155.574219 C 150.398438 154.449219 149.085938 153.261719 147.835938 152.007812 C 146.585938 150.757812 145.398438 149.445312 144.277344 148.078125 C 143.152344 146.707031 142.101562 145.289062 141.117188 143.816406 C 140.136719 142.34375 139.226562 140.824219 138.394531 139.261719 C 137.558594 137.703125 136.804688 136.101562 136.125 134.464844 C 135.449219 132.832031 134.855469 131.164062 134.339844 129.46875 C 133.828125 127.773438 133.398438 126.058594 133.050781 124.324219 C 132.707031 122.585938 132.449219 120.835938 132.273438 119.074219 C 132.101562 117.3125 132.015625 115.542969 132.015625 113.773438 C 132.015625 112.003906 132.101562 110.234375 132.273438 108.472656 C 132.449219 106.710938 132.707031 104.960938 133.050781 103.222656 C 133.398438 101.488281 133.828125 99.773438 134.339844 98.078125 C 134.855469 96.382812 135.449219 94.714844 136.125 93.082031 C 136.804688 91.445312 137.558594 89.84375 138.394531 88.285156 C 139.226562 86.722656 140.136719 85.203125 141.117188 83.730469 C 142.101562 82.257812 143.152344 80.839844 144.277344 79.46875 C 145.398438 78.101562 146.585938 76.789062 147.835938 75.539062 C 149.085938 74.285156 150.398438 73.097656 151.765625 71.972656 C 153.132812 70.851562 154.550781 69.796875 156.023438 68.8125 C 157.492188 67.828125 159.007812 66.921875 160.570312 66.085938 C 162.128906 65.25 163.726562 64.496094 165.363281 63.816406 C 166.996094 63.140625 168.660156 62.542969 170.355469 62.027344 C 172.046875 61.515625 173.761719 61.085938 175.496094 60.738281 C 177.230469 60.394531 178.980469 60.132812 180.738281 59.960938 C 182.5 59.789062 184.265625 59.699219 186.035156 59.699219 C 187.804688 59.699219 189.570312 59.789062 191.328125 59.960938 C 193.089844 60.132812 194.839844 60.394531 196.574219 60.738281 C 198.308594 61.085938 200.023438 61.515625 201.714844 62.027344 C 203.410156 62.542969 205.074219 63.140625 206.707031 63.816406 C 208.34375 64.496094 209.941406 65.25 211.5 66.085938 C 213.0625 66.921875 214.578125 67.828125 216.046875 68.8125 C 217.519531 69.796875 218.9375 70.851562 220.304688 71.972656 C 221.671875 73.097656 222.980469 74.285156 224.234375 75.539062 C 225.484375 76.789062 226.671875 78.101562 227.792969 79.46875 C 228.917969 80.839844 229.96875 82.257812 230.953125 83.730469 C 231.933594 85.203125 232.84375 86.722656 233.675781 88.285156 C 234.511719 89.84375 235.265625 91.445312 235.945312 93.082031 C 236.621094 94.714844 237.214844 96.382812 237.730469 98.078125 C 238.242188 99.773438 238.671875 101.488281 239.019531 103.222656 C 239.363281 104.960938 239.621094 106.710938 239.796875 108.472656 C 239.96875 110.234375 240.054688 112.003906 240.054688 113.773438 Z M 240.054688 113.773438 " fill-opacity="1" fill-rule="nonzero"/><path fill="#d78b6a" d="M 169.574219 157.945312 C 169.574219 157.945312 168.882812 181 159.683594 190.902344 C 150.480469 200.800781 141.835938 196.164062 132.015625 210.703125 C 122.191406 225.242188 139.277344 275.371094 125.441406 333.390625 C 125.441406 333.390625 202.566406 352.496094 244.691406 333.390625 C 244.691406 333.390625 235.976562 310.957031 237.425781 268.929688 C 238.878906 226.90625 240.886719 214.511719 233.96875 205.09375 C 227.050781 195.679688 213.21875 197.203125 205.816406 189.726562 C 198.417969 182.246094 198.902344 157.875 198.902344 157.875 C 198.902344 157.875 180.777344 149.082031 169.574219 157.945312 Z M 169.574219 157.945312 " fill-opacity="1" fill-rule="nonzero"/><path fill="#ce6e4d" d="M 165.90625 179.546875 C 177.664062 186.886719 191.429688 190.210938 205.195312 189.03125 C 202.429688 182.316406 201.390625 175.046875 202.011719 167.847656 L 167.289062 167.847656 C 167.289062 167.847656 166.875 176.777344 165.90625 179.546875 Z M 165.90625 179.546875 " fill-opacity="1" fill-rule="nonzero"/><path fill="#d78b6a" d="M 132.015625 113.773438 C 133.605469 143.683594 148.40625 168.261719 170.265625 176.222656 C 178.425781 179.199219 187.210938 179.824219 195.71875 177.953125 C 218.058594 172.832031 235.492188 149.84375 239.777344 119.796875 C 239.777344 119.726562 191.984375 74.863281 132.015625 113.773438 Z M 132.015625 113.773438 " fill-opacity="1" fill-rule="nonzero"/><path fill="#ce6e4d" d="M 156.152344 135.121094 C 156.644531 135.132812 157.136719 135.179688 157.617188 135.253906 C 158.101562 135.332031 158.570312 135.441406 159.027344 135.582031 C 159.480469 135.722656 159.910156 135.890625 160.316406 136.085938 C 160.722656 136.285156 161.101562 136.503906 161.445312 136.75 C 161.789062 136.996094 162.09375 137.265625 162.363281 137.550781 C 162.628906 137.835938 162.855469 138.136719 163.039062 138.453125 C 163.21875 138.769531 163.355469 139.09375 163.441406 139.425781 C 163.53125 139.757812 163.570312 140.089844 163.5625 140.425781 C 163.554688 140.761719 163.5 141.09375 163.394531 141.421875 C 163.289062 141.75 163.136719 142.066406 162.941406 142.375 C 162.746094 142.679688 162.503906 142.96875 162.222656 143.242188 C 161.941406 143.515625 161.621094 143.765625 161.265625 143.996094 C 160.910156 144.222656 160.523438 144.425781 160.109375 144.605469 C 159.691406 144.78125 159.253906 144.929688 158.792969 145.046875 C 158.335938 145.164062 157.859375 145.25 157.375 145.300781 C 156.886719 145.355469 156.394531 145.375 155.902344 145.363281 C 155.40625 145.351562 154.917969 145.308594 154.433594 145.230469 C 153.949219 145.152344 153.480469 145.042969 153.027344 144.902344 C 152.570312 144.765625 152.140625 144.597656 151.734375 144.398438 C 151.328125 144.203125 150.953125 143.980469 150.609375 143.734375 C 150.265625 143.488281 149.957031 143.222656 149.691406 142.933594 C 149.421875 142.648438 149.195312 142.347656 149.015625 142.03125 C 148.832031 141.71875 148.699219 141.394531 148.609375 141.0625 C 148.519531 140.730469 148.480469 140.394531 148.488281 140.058594 C 148.496094 139.722656 148.554688 139.390625 148.65625 139.0625 C 148.761719 138.734375 148.914062 138.417969 149.109375 138.113281 C 149.308594 137.804688 149.546875 137.515625 149.828125 137.242188 C 150.109375 136.972656 150.429688 136.71875 150.785156 136.492188 C 151.140625 136.261719 151.527344 136.058594 151.941406 135.882812 C 152.359375 135.703125 152.796875 135.558594 153.257812 135.441406 C 153.71875 135.324219 154.191406 135.238281 154.679688 135.183594 C 155.164062 135.128906 155.65625 135.109375 156.152344 135.121094 Z M 156.152344 135.121094 " fill-opacity="1" fill-rule="nonzero"/><path fill="#ce6e4d" d="M 209.582031 135.015625 C 210.078125 135.027344 210.566406 135.074219 211.050781 135.152344 C 211.535156 135.230469 212.003906 135.339844 212.457031 135.484375 C 212.910156 135.625 213.339844 135.792969 213.75 135.996094 C 214.15625 136.195312 214.53125 136.417969 214.875 136.667969 C 215.21875 136.917969 215.523438 137.1875 215.792969 137.476562 C 216.0625 137.765625 216.285156 138.074219 216.46875 138.390625 C 216.648438 138.710938 216.785156 139.039062 216.871094 139.375 C 216.960938 139.714844 217 140.050781 216.992188 140.390625 C 216.984375 140.734375 216.925781 141.070312 216.824219 141.402344 C 216.71875 141.734375 216.566406 142.054688 216.371094 142.363281 C 216.171875 142.675781 215.933594 142.96875 215.652344 143.246094 C 215.371094 143.523438 215.050781 143.777344 214.695312 144.007812 C 214.339844 144.242188 213.953125 144.449219 213.539062 144.625 C 213.121094 144.804688 212.683594 144.957031 212.222656 145.074219 C 211.761719 145.195312 211.289062 145.28125 210.800781 145.335938 C 210.316406 145.390625 209.824219 145.410156 209.328125 145.398438 C 208.832031 145.386719 208.34375 145.34375 207.859375 145.261719 C 207.375 145.183594 206.90625 145.074219 206.453125 144.933594 C 206 144.792969 205.570312 144.621094 205.164062 144.421875 C 204.753906 144.222656 204.378906 143.996094 204.035156 143.75 C 203.691406 143.5 203.386719 143.230469 203.117188 142.9375 C 202.851562 142.648438 202.625 142.34375 202.445312 142.023438 C 202.261719 141.703125 202.125 141.375 202.039062 141.039062 C 201.949219 140.703125 201.910156 140.363281 201.917969 140.023438 C 201.925781 139.683594 201.984375 139.347656 202.085938 139.015625 C 202.191406 138.683594 202.34375 138.363281 202.539062 138.050781 C 202.738281 137.742188 202.976562 137.449219 203.257812 137.171875 C 203.539062 136.894531 203.859375 136.640625 204.214844 136.40625 C 204.570312 136.175781 204.957031 135.96875 205.375 135.789062 C 205.789062 135.609375 206.226562 135.460938 206.6875 135.339844 C 207.148438 135.222656 207.621094 135.136719 208.109375 135.082031 C 208.597656 135.027344 209.085938 135.003906 209.582031 135.015625 Z M 209.582031 135.015625 " fill-opacity="1" fill-rule="nonzero"/><path fill="#000000" d="M 186.863281 138.144531 C 185.066406 138.007812 180.847656 137.453125 179.949219 136.136719 C 179.324219 135.167969 180.710938 131.359375 184.238281 124.988281 C 184.445312 124.644531 184.859375 124.503906 185.203125 124.710938 C 185.550781 124.921875 185.6875 125.335938 185.480469 125.683594 C 183.335938 129.628906 181.054688 134.40625 181.191406 135.375 C 181.675781 135.859375 184.304688 136.414062 187.003906 136.691406 C 187.417969 136.691406 187.695312 137.035156 187.625 137.453125 C 187.558594 137.867188 187.210938 138.144531 186.863281 138.144531 Z M 186.863281 138.144531 " fill-opacity="1" fill-rule="nonzero"/><path fill="#4e3c4b" d="M 152.488281 116.957031 C 154.632812 115.15625 157.261719 113.980469 160.097656 113.703125 C 161.964844 113.496094 164.523438 113.21875 165.492188 114.671875 C 165.90625 115.296875 165.976562 116.058594 165.628906 116.75 C 164.871094 117.996094 162.519531 117.164062 158.851562 117.375 C 154.078125 117.71875 151.175781 119.796875 150.757812 119.171875 C 150.480469 118.757812 151.933594 117.511719 152.488281 116.957031 Z M 152.488281 116.957031 " fill-opacity="1" fill-rule="nonzero"/><path fill="#4e3c4b" d="M 212.179688 116.679688 C 210.035156 114.882812 207.339844 113.773438 204.570312 113.566406 C 202.703125 113.359375 200.078125 113.148438 199.175781 114.535156 C 198.761719 115.15625 198.761719 115.917969 199.109375 116.613281 C 199.9375 117.859375 202.21875 116.957031 205.886719 117.234375 C 210.660156 117.511719 213.632812 119.589844 213.980469 118.898438 C 214.1875 118.414062 212.804688 117.164062 212.179688 116.679688 Z M 212.179688 116.679688 " fill-opacity="1" fill-rule="nonzero"/><path fill="#000000" d="M 166.597656 130.183594 C 164.800781 131.84375 162.035156 131.773438 160.375 129.972656 C 158.714844 128.175781 158.78125 125.40625 160.582031 123.742188 C 162.378906 122.082031 165.144531 122.152344 166.804688 123.949219 C 168.464844 125.75 168.328125 128.519531 166.597656 130.183594 Z M 166.597656 130.183594 " fill-opacity="1" fill-rule="evenodd"/><path fill="#000000" d="M 163.347656 122.636719 C 162.933594 123.605469 162.378906 124.503906 161.6875 125.265625 C 160.71875 126.375 160.097656 127.136719 159.199219 127.136719 C 157.398438 127.207031 156.015625 124.4375 156.152344 124.296875 C 156.292969 124.160156 157.121094 125.683594 158.230469 125.542969 C 159.472656 125.40625 159.542969 122.84375 163.347656 122.636719 Z M 163.347656 122.636719 " fill-opacity="1" fill-rule="evenodd"/><path fill="#efefef" d="M 157.191406 193.324219 C 157.191406 193.324219 129.59375 200.109375 126.621094 216.933594 C 123.644531 233.757812 132.84375 297.179688 125.441406 333.457031 C 125.441406 333.457031 203.121094 358.730469 246.417969 333.457031 C 246.417969 333.457031 237.152344 297.734375 240.125 263.808594 C 243.097656 229.882812 240.402344 209.734375 235.765625 203.710938 C 231.132812 197.6875 208.238281 191.800781 208.238281 191.800781 C 208.238281 191.800781 191.085938 235.972656 189.007812 236.945312 C 186.933594 237.914062 166.320312 209.25 157.191406 193.324219 Z M 157.191406 193.324219 " fill-opacity="1" fill-rule="nonzero"/><path fill="#dddbdd" d="M 163.347656 185.640625 C 163.347656 185.640625 155.738281 186.746094 152.417969 191.386719 C 149.097656 196.027344 152.972656 217.695312 153.734375 219.21875 C 154.496094 220.742188 163.832031 218.25 164.59375 219.21875 C 165.355469 220.1875 160.027344 226.210938 160.71875 227.875 C 161.410156 229.535156 187.695312 240.128906 188.664062 238.121094 C 189.632812 236.113281 171.441406 214.925781 165.90625 205.996094 C 160.375 197.0625 156.570312 194.226562 158.507812 192.21875 C 160.441406 190.210938 162.933594 187.648438 163.347656 185.640625 Z M 163.347656 185.640625 " fill-opacity="1" fill-rule="nonzero"/><path fill="#000000" d="M 164.039062 331.933594 C 149.722656 329.859375 137.894531 321.132812 137.753906 321.066406 C 137.617188 320.996094 137.546875 320.71875 137.617188 320.582031 C 137.6875 320.441406 137.960938 320.371094 138.101562 320.441406 C 138.101562 320.441406 138.171875 320.441406 138.171875 320.511719 C 138.308594 320.582031 150 329.234375 164.109375 331.3125 C 164.316406 331.382812 164.386719 331.519531 164.386719 331.726562 C 164.316406 331.796875 164.179688 331.933594 164.039062 331.933594 Z M 164.039062 331.933594 " fill-opacity="1" fill-rule="nonzero"/><path fill="#dddbdd" d="M 204.15625 187.234375 C 204.15625 187.234375 205.816406 190.625 207.40625 191.734375 C 209 192.839844 187.695312 236.667969 188.664062 238.121094 C 189.632812 239.574219 208.238281 221.433594 209.066406 219.980469 C 209.898438 218.527344 206.371094 216.378906 206.507812 215.203125 C 206.648438 214.027344 211.972656 216.589844 214.1875 213.886719 C 216.398438 211.1875 217.644531 195.609375 216.261719 193.046875 C 214.878906 190.488281 203.878906 183.355469 204.15625 187.234375 Z M 204.15625 187.234375 " fill-opacity="1" fill-rule="nonzero"/><path fill="#ffdf86" d="M 138.863281 239.78125 L 189.285156 239.78125 C 192.535156 239.78125 195.164062 242.414062 195.164062 245.667969 L 195.164062 320.304688 C 195.164062 323.558594 192.535156 326.1875 189.285156 326.1875 L 138.863281 326.1875 C 135.609375 326.1875 132.984375 323.558594 132.984375 320.304688 L 132.984375 245.667969 C 132.984375 242.414062 135.609375 239.78125 138.863281 239.78125 Z M 138.863281 239.78125 " fill-opacity="1" fill-rule="nonzero"/><path fill="#ff4157" d="M 177.113281 242.757812 L 151.105469 242.757812 C 149.929688 242.691406 148.960938 241.652344 149.03125 240.476562 C 149.097656 239.367188 150 238.46875 151.105469 238.398438 L 177.113281 238.398438 C 178.289062 238.46875 179.257812 239.503906 179.1875 240.683594 C 179.117188 241.789062 178.21875 242.691406 177.113281 242.757812 Z M 177.113281 242.757812 " fill-opacity="1" fill-rule="nonzero"/><path fill="#d78b6a" d="M 167.429688 274.398438 C 158.851562 276.753906 150.066406 278.347656 141.214844 279.109375 C 124.265625 280.5625 108.566406 278.832031 105.175781 285.6875 C 103.171875 289.769531 103.792969 296.140625 107.390625 300.15625 C 120.046875 310.542969 135.402344 305.488281 151.242188 300.433594 C 158.574219 298.078125 165.769531 295.238281 172.683594 291.847656 C 170.058594 286.308594 168.257812 280.421875 167.429688 274.398438 Z M 167.429688 274.398438 " fill-opacity="1" fill-rule="nonzero"/><path fill="#d78b6a" d="M 158.089844 276.546875 C 164.9375 275.921875 169.019531 273.707031 171.441406 271.699219 C 175.730469 268.167969 177.941406 266.367188 178.839844 265.054688 C 179.324219 264.359375 181.191406 261.589844 183.128906 261.523438 C 185.066406 261.453125 182.921875 267.40625 182.507812 269.070312 C 182.09375 270.730469 189.492188 265.882812 191.570312 264.015625 C 193.644531 262.144531 194.957031 261.039062 195.996094 261.453125 C 197.03125 261.867188 193.574219 267.546875 191.84375 269.621094 C 190.117188 271.699219 195.582031 268.238281 197.171875 266.507812 C 198.761719 264.777344 199.109375 264.085938 199.800781 264.359375 C 200.492188 264.636719 199.382812 268.238281 197.792969 270.382812 C 196.203125 272.53125 193.503906 274.125 193.644531 274.398438 C 193.78125 274.675781 198.761719 271.90625 200.214844 270.867188 C 201.667969 269.832031 201.390625 274.191406 198 276.753906 C 194.613281 279.316406 194.195312 279.523438 194.820312 279.800781 C 195.441406 280.078125 199.730469 278.140625 200.285156 279.039062 C 200.835938 279.9375 195.582031 285.339844 188.25 288.109375 C 182.230469 290.324219 175.9375 291.917969 169.640625 292.886719 C 167.015625 293.164062 164.660156 288.664062 164.660156 288.664062 Z M 158.089844 276.546875 " fill-opacity="1" fill-rule="nonzero"/><path fill="#4e3c4b" d="M 189.425781 74.933594 C 189.425781 74.933594 163.417969 123.742188 127.171875 122.636719 C 127.171875 122.636719 123.785156 80.746094 135.402344 65.585938 C 147.023438 50.421875 187.972656 54.160156 198.832031 59.699219 C 198.832031 59.699219 230.511719 56.515625 239.710938 70.015625 C 248.910156 83.515625 242.339844 124.851562 242.339844 124.851562 C 242.339844 124.851562 196.203125 120.835938 189.425781 74.933594 Z M 189.425781 74.933594 " fill-opacity="1" fill-rule="nonzero"/><path fill="#efefef" d="M 150.691406 72.855469 C 150.691406 72.855469 142.457031 37.960938 153.316406 34.84375 C 164.179688 31.730469 220.6875 32.769531 231.894531 39.066406 C 243.097656 45.367188 229.128906 75.761719 226.292969 76.800781 C 223.457031 77.839844 203.257812 61.222656 150.691406 72.855469 Z M 150.691406 72.855469 " fill-opacity="1" fill-rule="nonzero"/><path fill="#ff4157" d="M 190.738281 42.183594 L 194.886719 42.183594 C 195.648438 42.183594 196.339844 42.808594 196.339844 43.636719 L 196.339844 60.878906 C 196.339844 61.640625 195.71875 62.332031 194.886719 62.332031 L 190.738281 62.332031 C 189.976562 62.332031 189.285156 61.707031 189.285156 60.878906 L 189.285156 43.570312 C 189.285156 42.808594 189.910156 42.183594 190.738281 42.183594 Z M 190.738281 42.183594 " fill-opacity="1" fill-rule="nonzero"/><path fill="#ff4157" d="M 182.785156 54.300781 L 182.785156 50.144531 C 182.785156 49.382812 183.40625 48.691406 184.238281 48.691406 L 201.460938 48.691406 C 202.21875 48.691406 202.914062 49.316406 202.914062 50.144531 L 202.914062 54.300781 C 202.914062 55.0625 202.289062 55.753906 201.460938 55.753906 L 184.238281 55.753906 C 183.40625 55.683594 182.785156 55.0625 182.785156 54.300781 Z M 182.785156 54.300781 " fill-opacity="1" fill-rule="nonzero"/><path fill="#ffffff" d="M 174.414062 145.761719 L 196.203125 146.800781 C 195.097656 151.851562 190.945312 155.523438 186.242188 155.867188 C 180.640625 156.285156 175.246094 151.921875 174.414062 145.761719 Z M 174.414062 145.761719 " fill-opacity="1" fill-rule="nonzero"/><path fill="#000000" d="M 209.277344 127.757812 C 208.375 127.757812 207.753906 126.996094 206.785156 125.957031 C 206.09375 125.199219 205.472656 124.296875 205.054688 123.398438 C 208.859375 123.535156 209 126.097656 210.242188 126.167969 C 211.351562 126.304688 212.25 124.78125 212.320312 124.851562 C 212.386719 124.921875 211.074219 127.828125 209.277344 127.757812 Z M 209.277344 127.757812 " fill-opacity="1" fill-rule="evenodd"/><path fill="#000000" d="M 207.824219 127.066406 C 206.785156 125.957031 205.332031 125.199219 203.8125 124.988281 C 201.597656 124.710938 198.070312 126.097656 198.070312 125.820312 C 198.070312 125.542969 200.699219 123.191406 203.535156 122.980469 C 205.195312 122.914062 206.855469 123.398438 208.167969 124.367188 C 209.277344 125.683594 208.167969 127.550781 207.824219 127.066406 Z M 207.824219 127.066406 " fill-opacity="1" fill-rule="evenodd"/><path fill="#d78b6a" d="M 263.089844 233.34375 C 246.28125 271.628906 235.976562 279.871094 239.570312 288.871094 C 241.921875 294.6875 249.394531 298.980469 255.34375 298.21875 C 273.671875 295.792969 279.136719 243.867188 279.480469 240.683594 Z M 263.089844 233.34375 " fill-opacity="1" fill-rule="evenodd"/><path fill="#d78b6a" d="M 262.882812 237.011719 C 262.882812 237.011719 260.113281 226.628906 261.5 219.910156 C 262.882812 213.195312 261.359375 207.796875 264.058594 207.378906 C 266.753906 206.964844 266.617188 214.511719 268 214.371094 C 269.382812 214.234375 272.566406 200.457031 274.984375 200.664062 C 277.40625 200.871094 273.742188 212.640625 274.984375 212.988281 C 276.230469 213.335938 281.902344 200.800781 283.976562 202.257812 C 286.054688 203.710938 280.171875 214.789062 281.347656 215.410156 C 282.523438 216.035156 288.335938 207.449219 290.480469 208.625 C 292.625 209.804688 285.292969 220.121094 286.054688 220.949219 C 286.8125 221.78125 289.855469 219.21875 292 219.910156 C 294.144531 220.605469 290.203125 222.335938 287.230469 226.417969 C 284.253906 230.503906 282.109375 240.960938 279.273438 243.105469 C 276.4375 245.253906 270.351562 242.136719 270.351562 242.136719 Z M 262.882812 237.011719 " fill-opacity="1" fill-rule="evenodd"/><path fill="#000000" d="M 283.148438 223.511719 C 280.449219 218.941406 272.566406 216.933594 272.496094 216.933594 C 272.425781 216.867188 272.359375 216.796875 272.425781 216.726562 C 272.425781 216.65625 272.496094 216.589844 272.632812 216.589844 C 272.980469 216.65625 280.65625 218.597656 283.492188 223.304688 C 283.5625 223.511719 283.285156 223.71875 283.148438 223.511719 Z M 283.148438 223.511719 " fill-opacity="1" fill-rule="nonzero"/><path fill="#000000" d="M 269.660156 222.195312 C 270.421875 218.875 267.863281 214.511719 267.863281 214.441406 C 267.722656 214.234375 268.070312 214.097656 268.136719 214.234375 C 268.207031 214.371094 270.835938 218.734375 270.003906 222.195312 C 270.003906 222.265625 269.867188 222.335938 269.796875 222.335938 C 269.730469 222.335938 269.660156 222.335938 269.660156 222.195312 Z M 269.660156 222.195312 " fill-opacity="1" fill-rule="nonzero"/><path fill="#000000" d="M 192.121094 280.492188 C 192.050781 280.492188 191.914062 280.421875 191.914062 280.285156 C 191.914062 280.214844 191.984375 280.148438 192.054688 280.148438 C 192.054688 280.148438 193.089844 279.871094 194.40625 279.386719 C 194.472656 279.386719 194.613281 279.386719 194.613281 279.523438 C 194.613281 279.59375 194.613281 279.730469 194.472656 279.730469 C 194.335938 279.800781 192.191406 280.492188 192.121094 280.492188 Z M 192.121094 280.492188 " fill-opacity="1" fill-rule="nonzero"/><path fill="#000000" d="M 191.015625 275.714844 C 190.945312 275.714844 190.875 275.578125 190.875 275.507812 C 190.875 275.4375 190.945312 275.371094 191.015625 275.371094 C 191.914062 275.160156 192.746094 274.816406 193.503906 274.332031 C 193.574219 274.261719 193.710938 274.332031 193.710938 274.46875 C 193.710938 274.539062 193.710938 274.609375 193.644531 274.675781 C 192.882812 275.160156 191.984375 275.578125 191.015625 275.714844 Z M 191.015625 275.714844 " fill-opacity="1" fill-rule="nonzero"/><path fill="#000000" d="M 189.355469 271.90625 C 189.285156 271.90625 189.148438 271.839844 189.148438 271.699219 C 189.148438 271.628906 189.21875 271.492188 189.355469 271.492188 C 190.117188 271.214844 190.808594 270.730469 191.359375 270.175781 C 191.429688 270.109375 191.570312 270.109375 191.636719 270.175781 C 191.707031 270.246094 191.707031 270.382812 191.636719 270.453125 C 191.152344 270.871094 189.910156 271.90625 189.355469 271.90625 Z M 189.355469 271.90625 " fill-opacity="1" fill-rule="nonzero"/><path fill="#000000" d="M 238.394531 284.164062 C 238.1875 284.164062 238.050781 284.023438 238.050781 283.816406 C 238.050781 261.800781 237.980469 263.183594 238.117188 263.046875 C 241.785156 257.992188 243.445312 253.144531 243.097656 248.574219 C 242.960938 246.636719 242.40625 245.390625 238.742188 229.949219 C 238.671875 229.742188 238.8125 229.605469 239.019531 229.535156 C 239.226562 229.464844 239.363281 229.605469 239.433594 229.8125 C 243.167969 245.527344 243.652344 246.566406 243.789062 248.574219 C 244.136719 253.285156 242.476562 258.269531 238.742188 263.390625 L 238.742188 283.816406 C 238.742188 284.023438 238.535156 284.164062 238.394531 284.164062 Z M 238.394531 284.164062 " fill-opacity="1" fill-rule="nonzero"/><path fill="#000000" d="M 208.792969 328.128906 C 221.171875 327.089844 235.765625 319.472656 235.90625 319.402344 C 236.113281 319.335938 236.320312 319.402344 236.390625 319.609375 C 236.460938 319.75 236.390625 319.957031 236.25 320.027344 C 236.113281 320.097656 221.378906 327.78125 208.859375 328.820312 C 208.652344 328.820312 208.515625 328.679688 208.515625 328.472656 C 208.515625 328.265625 208.652344 328.128906 208.792969 328.128906 Z M 208.792969 328.128906 " fill-opacity="1" fill-rule="nonzero"/><path fill="#000000" d="M 131.945312 116.128906 C 159.75 110.933594 179.949219 73.964844 180.15625 73.546875 C 180.226562 73.339844 180.433594 73.269531 180.640625 73.339844 C 180.847656 73.410156 180.917969 73.617188 180.847656 73.824219 C 180.847656 73.824219 180.847656 73.894531 180.777344 73.894531 C 180.570312 74.238281 160.164062 111.558594 132.082031 116.820312 C 131.875 116.820312 131.738281 116.679688 131.738281 116.472656 C 131.738281 116.335938 131.808594 116.195312 131.945312 116.128906 Z M 131.945312 116.128906 " fill-opacity="1" fill-rule="nonzero"/><path fill="#000000" d="M 131.945312 105.535156 C 148.269531 102.558594 165.355469 82.0625 165.492188 81.855469 C 165.628906 81.71875 165.835938 81.71875 165.976562 81.785156 C 166.113281 81.925781 166.113281 82.132812 166.046875 82.269531 C 165.90625 82.480469 148.613281 103.179688 132.082031 106.15625 C 131.875 106.15625 131.738281 106.089844 131.667969 105.878906 C 131.597656 105.671875 131.738281 105.605469 131.945312 105.535156 Z M 131.945312 105.535156 " fill-opacity="1" fill-rule="nonzero"/><path fill="#000000" d="M 236.113281 117.097656 C 213.839844 111.695312 196.203125 78.878906 195.996094 78.53125 C 195.925781 78.394531 195.996094 78.117188 196.132812 78.046875 C 196.273438 77.980469 196.546875 78.046875 196.617188 78.1875 C 196.757812 78.53125 214.257812 111.003906 236.25 116.40625 C 236.460938 116.472656 236.527344 116.679688 236.460938 116.820312 C 236.390625 117.027344 236.25 117.097656 236.113281 117.097656 Z M 236.113281 117.097656 " fill-opacity="1" fill-rule="nonzero"/><path fill="#000000" d="M 238.117188 107.613281 C 233 106.363281 227.328125 102.003906 221.242188 94.734375 C 218.476562 91.410156 215.984375 87.878906 213.703125 84.210938 C 213.632812 84.070312 213.632812 83.792969 213.839844 83.726562 C 213.980469 83.65625 214.1875 83.65625 214.324219 83.863281 C 214.464844 84.070312 226.359375 104.082031 238.328125 106.988281 C 238.535156 107.058594 238.601562 107.265625 238.535156 107.472656 C 238.394531 107.542969 238.257812 107.679688 238.117188 107.613281 Z M 238.117188 107.613281 " fill-opacity="1" fill-rule="nonzero"/><path fill="#000000" d="M 132.015625 171.515625 C 131.808594 171.515625 131.667969 171.378906 131.667969 171.167969 C 131.667969 171.101562 131.738281 171.03125 131.738281 170.960938 C 135.335938 167.292969 138.65625 153.652344 138.722656 153.515625 C 138.792969 153.308594 138.929688 153.238281 139.140625 153.238281 C 139.347656 153.308594 139.414062 153.445312 139.414062 153.652344 C 139.277344 154.207031 135.957031 167.570312 132.222656 171.445312 C 132.222656 171.445312 132.082031 171.515625 132.015625 171.515625 Z M 132.015625 171.515625 " fill-opacity="1" fill-rule="nonzero"/><path fill="#000000" d="M 141.074219 178.230469 C 144.949219 176.085938 146.746094 167.847656 146.746094 167.777344 C 146.816406 167.570312 146.953125 167.5 147.164062 167.5 C 147.371094 167.570312 147.4375 167.707031 147.4375 167.914062 C 147.371094 168.261719 145.570312 176.5 141.421875 178.855469 C 141.214844 178.925781 141.007812 178.855469 140.9375 178.648438 C 140.867188 178.507812 140.9375 178.371094 141.074219 178.230469 Z M 141.074219 178.230469 " fill-opacity="1" fill-rule="nonzero"/><path fill="#000000" d="M 236.183594 176.5 C 236.113281 176.5 235.976562 176.433594 235.90625 176.433594 C 232.308594 172.761719 229.335938 155.523438 229.195312 154.832031 C 229.195312 154.621094 229.265625 154.484375 229.472656 154.414062 C 229.679688 154.414062 229.820312 154.484375 229.886719 154.691406 C 229.886719 154.832031 233 172.417969 236.390625 175.945312 C 236.527344 176.085938 236.527344 176.292969 236.390625 176.433594 C 236.320312 176.433594 236.25 176.5 236.183594 176.5 Z M 236.183594 176.5 " fill-opacity="1" fill-rule="nonzero"/><path fill="#000000" d="M 223.523438 180.101562 C 223.386719 180.101562 223.316406 180.03125 223.246094 179.960938 C 219.71875 175.460938 220.6875 166.808594 220.757812 166.390625 C 220.757812 166.183594 220.964844 166.046875 221.171875 166.117188 C 221.378906 166.117188 221.519531 166.324219 221.449219 166.53125 C 221.449219 166.601562 220.480469 175.324219 223.800781 179.546875 C 223.941406 179.6875 223.871094 179.894531 223.730469 180.03125 C 223.664062 180.101562 223.59375 180.101562 223.523438 180.101562 Z M 223.523438 180.101562 " fill-opacity="1" fill-rule="nonzero"/><path fill="#000000" d="M 186.3125 159.539062 C 184.167969 159.46875 182.09375 159.054688 180.15625 158.222656 C 179.949219 158.152344 179.878906 157.945312 179.949219 157.808594 C 180.015625 157.597656 180.226562 157.53125 180.363281 157.597656 C 180.363281 157.597656 180.433594 157.597656 180.433594 157.667969 C 180.5 157.667969 186.65625 160.4375 190.945312 157.667969 C 191.085938 157.597656 191.292969 157.597656 191.429688 157.808594 C 191.570312 158.015625 191.5 158.152344 191.292969 158.292969 C 189.769531 159.121094 188.039062 159.609375 186.3125 159.539062 Z M 186.3125 159.539062 " fill-opacity="1" fill-rule="nonzero"/></svg>