<svg xmlns="http://www.w3.org/2000/svg" xmlns:xlink="http://www.w3.org/1999/xlink" width="500" zoomAndPan="magnify" viewBox="0 0 375 374.999991" height="500" preserveAspectRatio="xMidYMid meet" version="1.0"><defs><clipPath id="c94309414e"><path d="M 25.5 86 L 349 86 L 349 289 L 25.5 289 Z M 25.5 86 " clip-rule="nonzero"/></clipPath><clipPath id="b4be791906"><path d="M 25.757812 134.5 L 312.324219 134.5 L 312.324219 288.898438 L 25.757812 288.898438 Z M 25.757812 134.5 " clip-rule="nonzero"/></clipPath></defs><rect x="-37.5" width="450" fill="#ffffff" y="-37.499999" height="449.999989" fill-opacity="1"/><rect x="-37.5" width="450" fill="#ffffff" y="-37.499999" height="449.999989" fill-opacity="1"/><g clip-path="url(#c94309414e)"><path fill="#dbd9d5" d="M 41.1875 284.046875 C 37.753906 286.46875 34.007812 289.085938 29.808594 288.886719 C 28.648438 288.832031 27.433594 288.515625 26.636719 287.675781 C 25.527344 286.5 25.550781 284.582031 26.257812 283.125 C 26.964844 281.667969 28.648438 280.148438 30.054688 279.34375 C 68.738281 257.195312 107.820312 234.761719 140.308594 204.238281 C 148.816406 196.246094 177.484375 170.75 189.09375 162.710938 C 206.441406 150.699219 225.992188 139.351562 244.113281 128.542969 C 250.347656 124.824219 256.582031 121.109375 262.820312 117.390625 C 277.066406 108.890625 295.3125 97.789062 312.226562 89.21875 C 318.433594 86.074219 326.515625 85.859375 332.707031 89.039062 C 338.894531 92.21875 343.597656 97.816406 346.734375 104.027344 C 349.5 109.503906 348.691406 116.617188 346.171875 122.210938 C 343.652344 127.808594 332.265625 134.78125 325.082031 138.632812 C 312.199219 145.546875 299.265625 153.117188 286.957031 161.011719 C 265.066406 175.0625 251.121094 183.359375 234.386719 192.429688 C 216.878906 201.925781 147.871094 227.1875 132.496094 234.3125 C 127.8125 236.484375 123.214844 238.824219 118.617188 241.164062 C 110.589844 245.246094 102.566406 249.328125 94.539062 253.410156 C 90.859375 255.285156 87.171875 257.160156 83.609375 259.257812 C 69.476562 267.585938 54.59375 274.585938 41.1875 284.046875 " fill-opacity="1" fill-rule="nonzero"/></g><path fill="#59618b" d="M 346.171875 122.210938 C 343.652344 127.808594 332.265625 134.78125 325.082031 138.632812 C 323.351562 139.5625 321.617188 140.503906 319.886719 141.457031 C 319.398438 138.390625 318.910156 135.328125 318.421875 132.261719 C 318.277344 131.351562 318.128906 130.429688 317.75 129.585938 C 317.285156 128.566406 316.507812 127.722656 315.746094 126.902344 C 310.914062 121.710938 306.085938 116.519531 301.257812 111.332031 C 298.242188 108.089844 293.804688 104.636719 292.25 100.347656 C 292.21875 100.265625 292.199219 100.167969 292.171875 100.082031 C 298.847656 96.28125 305.636719 92.558594 312.226562 89.21875 C 318.433594 86.074219 326.515625 85.859375 332.707031 89.039062 C 338.894531 92.21875 343.597656 97.816406 346.734375 104.027344 C 349.5 109.503906 348.691406 116.617188 346.171875 122.210938 " fill-opacity="1" fill-rule="nonzero"/><path fill="#b1c3d2" d="M 258.589844 137.492188 C 260.257812 139.121094 261.925781 140.75 263.59375 142.378906 C 264.703125 143.464844 265.875 144.65625 266.121094 146.191406 C 266.558594 148.917969 263.984375 151.09375 261.6875 152.636719 C 252.027344 159.117188 242.207031 165.367188 232.089844 171.117188 C 230.746094 171.886719 229.242188 172.671875 227.714844 172.386719 C 226.265625 172.113281 225.179688 170.941406 224.203125 169.832031 C 221.960938 167.285156 219.71875 164.738281 217.476562 162.195312 C 216.496094 161.082031 214.640625 159.347656 215.246094 158 C 215.484375 157.464844 216.023438 157.132812 216.527344 156.835938 C 228.230469 149.972656 239.933594 143.105469 251.632812 136.238281 C 252.625 135.65625 253.652344 135.0625 254.792969 134.933594 C 255.933594 134.800781 257.769531 136.691406 258.589844 137.492188 " fill-opacity="1" fill-rule="nonzero"/><path fill="#485274" d="M 341.359375 118.429688 C 338.820312 120.945312 335.625 122.6875 332.476562 124.390625 C 329.953125 125.757812 327.429688 127.125 324.90625 128.492188 C 323.34375 129.339844 321.613281 130.222656 319.839844 130.152344 C 325.730469 127.359375 331.375 124.054688 336.703125 120.292969 C 340.804688 117.386719 345.015625 113.699219 345.648438 108.710938 C 345.859375 112.285156 343.90625 115.914062 341.359375 118.429688 Z M 293.941406 127.46875 C 293.882812 128.78125 293.570312 130.128906 292.746094 131.152344 C 292.441406 131.53125 292.070312 131.859375 291.679688 132.152344 C 287.933594 134.945312 280.820312 134.1875 278.382812 129.785156 C 275.765625 125.050781 282.875 121.347656 286.574219 120.960938 C 288.601562 120.75 290.835938 121.042969 292.292969 122.472656 C 293.585938 123.734375 294.019531 125.664062 293.941406 127.46875 Z M 299.839844 124.800781 C 298.128906 119.851562 293.0625 116.460938 287.839844 116.082031 C 279.5625 115.480469 267.820312 121.449219 272.367188 131.332031 C 274.121094 135.132812 278.03125 137.6875 282.160156 138.40625 C 286.28125 139.132812 290.570312 138.191406 294.367188 136.421875 C 296.078125 135.625 297.757812 134.621094 298.886719 133.109375 C 300.625 130.785156 300.785156 127.542969 299.839844 124.800781 " fill-opacity="1" fill-rule="nonzero"/><g clip-path="url(#b4be791906)"><path fill="#8a98ab" d="M 312.273438 135.671875 C 294.132812 147.007812 263.742188 166.421875 247.46875 176.007812 C 245.015625 177.449219 242.566406 178.890625 240.117188 180.332031 C 237.308594 181.984375 234.5 183.636719 231.6875 185.289062 C 228.457031 187.1875 225.222656 189.089844 221.90625 190.84375 C 216.613281 193.644531 210.25 196.425781 204.714844 198.722656 C 184.171875 207.242188 150.035156 220.566406 138.546875 226.539062 C 128.097656 231.96875 117.648438 237.398438 107.203125 242.828125 C 89.472656 252.042969 71.734375 261.261719 54.546875 271.453125 C 58.519531 267.421875 86.320312 252.539062 104.945312 242.777344 C 124.4375 232.5625 145.066406 222.046875 163.75 214.019531 C 171.242188 210.800781 179.746094 207.851562 186.058594 205.261719 C 198.566406 200.121094 210.03125 195.25 222.0625 189.078125 C 232.933594 183.503906 284.261719 151.660156 288.554688 149.027344 C 297.609375 143.480469 306.332031 137.308594 312.273438 135.671875 Z M 249.664062 141.867188 C 251.425781 140.75 253.496094 139.582031 255.476562 140.234375 C 256.988281 140.730469 257.804688 142.269531 258.824219 143.488281 C 260.664062 145.679688 263.082031 148.046875 264.761719 150.054688 C 265.734375 148.929688 266.351562 147.640625 266.121094 146.191406 C 265.875 144.65625 264.703125 143.464844 263.59375 142.378906 C 261.925781 140.75 260.257812 139.121094 258.589844 137.492188 C 257.769531 136.691406 255.933594 134.800781 254.792969 134.933594 C 253.652344 135.0625 252.625 135.65625 251.632812 136.238281 C 239.933594 143.105469 228.230469 149.972656 216.527344 156.835938 C 216.023438 157.132812 215.484375 157.464844 215.246094 158 C 214.828125 158.929688 215.582031 160.042969 216.410156 161.011719 C 227.039062 155.277344 239.839844 148.078125 249.664062 141.867188 Z M 30.054688 279.34375 C 35.144531 276.425781 40.242188 273.507812 45.332031 270.566406 C 47.523438 272.675781 48.820312 275.675781 49.140625 278.792969 C 46.445312 280.472656 43.789062 282.210938 41.1875 284.046875 C 37.753906 286.46875 34.007812 289.085938 29.808594 288.886719 C 28.648438 288.832031 27.433594 288.515625 26.636719 287.675781 C 25.527344 286.5 25.550781 284.582031 26.257812 283.125 C 26.964844 281.667969 28.648438 280.148438 30.054688 279.34375 " fill-opacity="1" fill-rule="nonzero"/></g></svg>