<svg xmlns="http://www.w3.org/2000/svg" xmlns:xlink="http://www.w3.org/1999/xlink" width="500" zoomAndPan="magnify" viewBox="0 0 375 374.999991" height="500" preserveAspectRatio="xMidYMid meet" version="1.0"><defs><clipPath id="3dfcec75b2"><path d="M 25 25.089844 L 354.960938 25.089844 L 354.960938 354.820312 L 25 354.820312 Z M 25 25.089844 " clip-rule="nonzero"/></clipPath><clipPath id="c07deb7475"><path d="M 24.960938 27.070312 L 354.960938 27.070312 L 354.960938 354.820312 L 24.960938 354.820312 Z M 24.960938 27.070312 " clip-rule="nonzero"/></clipPath></defs><rect x="-37.5" width="450" fill="#ffffff" y="-37.499999" height="449.999989" fill-opacity="1"/><rect x="-37.5" width="450" fill="#ffffff" y="-37.499999" height="449.999989" fill-opacity="1"/><g clip-path="url(#3dfcec75b2)"><path fill="#ae7a56" d="M 354.820312 287.277344 C 354.414062 281.816406 352.683594 276.5 350.660156 271.40625 C 348.644531 266.3125 337.511719 253.710938 333.902344 249.585938 C 313.871094 226.738281 295.992188 209.859375 277.292969 190.628906 C 270.117188 197.914062 262.976562 205.152344 255.945312 212.328125 C 240.53125 228.0625 212.507812 255.855469 190.5 277.453125 C 206.597656 294.492188 223.054688 311.203125 239.875 327.535156 C 250.113281 337.484375 260.964844 347.589844 274.53125 352.027344 C 292.480469 357.898438 313.511719 354.460938 327.929688 342.261719 C 332.972656 337.996094 337.1875 332.84375 341.367188 327.726562 C 346.378906 321.59375 356.25 306.621094 354.820312 287.277344 Z M 28.085938 105.308594 C 25.085938 97.824219 24.089844 89.242188 26.941406 81.699219 C 28.265625 78.191406 29.46875 74.417969 31.25 71.121094 C 39.238281 56.355469 49.839844 42.527344 64.171875 33.777344 C 78.503906 25.027344 97 22.015625 112.34375 28.824219 C 119.132812 31.835938 124.996094 36.558594 130.617188 41.40625 C 152.136719 59.972656 171.285156 81.09375 190.316406 102.207031 C 180.648438 111.1875 170.625 120.082031 161.699219 129.53125 C 142.671875 149.691406 124.449219 171.453125 104.457031 190.796875 C 102.46875 189.015625 100.421875 187.292969 98.394531 185.5625 C 77.34375 167.554688 58.066406 147.476562 40.933594 125.707031 C 35.949219 119.367188 31.085938 112.792969 28.085938 105.308594 " fill-opacity="1" fill-rule="nonzero"/></g><g clip-path="url(#c07deb7475)"><path fill="#cb9163" d="M 343.753906 57.941406 C 345.304688 59.894531 346.824219 61.882812 348.113281 64.015625 C 353.484375 72.914062 354.820312 83.183594 354.820312 93.578125 C 354.820312 110.96875 343.085938 121.613281 335.710938 129.707031 C 310.316406 157.578125 282.328125 185.394531 255.945312 212.328125 C 232.339844 236.421875 179.160156 288.808594 163.300781 303.882812 C 154.585938 312.164062 145.746094 321.65625 137.691406 330.578125 C 119.308594 350.953125 105.242188 352.574219 98.785156 353.621094 C 94.742188 354.273438 90.671875 354.933594 86.582031 354.796875 C 75.757812 354.441406 65.949219 348.667969 56.679688 343.058594 C 43.296875 334.953125 32.78125 321.042969 27.109375 306.460938 C 25.847656 303.210938 24.800781 299.78125 24.980469 296.300781 C 25.628906 283.40625 29.703125 268.019531 38.308594 258.398438 C 42.53125 253.679688 79.558594 213.816406 97.445312 197.421875 C 120.246094 176.519531 140.46875 152.027344 161.699219 129.53125 C 173.550781 116.980469 187.34375 105.410156 199.667969 93.328125 C 219.796875 73.589844 230.144531 63.441406 250.273438 43.703125 C 259.527344 34.628906 271.769531 29.636719 284.617188 27.949219 C 319.09375 23.421875 337.414062 49.941406 343.753906 57.941406 " fill-opacity="1" fill-rule="nonzero"/></g><path fill="#87453e" d="M 54.925781 106.226562 C 55.78125 106.777344 56.875 107.183594 57.800781 106.757812 C 58.621094 106.378906 59.054688 105.460938 59.226562 104.574219 C 59.839844 101.40625 56.613281 95.429688 52.640625 97.277344 C 48.703125 99.105469 52.691406 104.785156 54.925781 106.226562 Z M 74.679688 97.140625 C 74.644531 98.363281 75.191406 99.539062 75.945312 100.5 C 77.085938 101.949219 78.878906 103.03125 80.710938 102.8125 C 81.003906 102.777344 81.308594 102.707031 81.550781 102.535156 C 81.800781 102.351562 81.972656 102.078125 82.113281 101.800781 C 83.007812 100.03125 82.886719 97.761719 81.699219 96.175781 C 79.902344 93.777344 74.796875 93.132812 74.679688 97.140625 Z M 76.703125 76.554688 C 77.578125 78.347656 79.390625 79.652344 81.367188 79.914062 C 81.707031 79.960938 82.074219 79.96875 82.359375 79.78125 C 82.65625 79.582031 82.789062 79.214844 82.875 78.863281 C 83.546875 76.0625 82.148438 72.277344 79.191406 71.367188 C 75.804688 70.328125 75.582031 74.253906 76.703125 76.554688 Z M 100.605469 73.773438 C 100.992188 75.386719 102.164062 76.75 103.605469 77.570312 C 104.074219 77.84375 104.617188 78.0625 105.148438 77.953125 C 105.738281 77.828125 106.179688 77.304688 106.371094 76.738281 C 106.566406 76.167969 106.550781 75.550781 106.527344 74.949219 C 106.476562 73.613281 106.355469 72.210938 105.632812 71.082031 C 103.375 67.554688 99.757812 70.246094 100.605469 73.773438 Z M 125.3125 70.964844 C 125.453125 72.34375 126.128906 73.660156 127.167969 74.578125 C 127.976562 75.292969 129.15625 75.769531 130.132812 75.3125 C 130.847656 74.976562 131.285156 74.191406 131.347656 73.402344 C 131.414062 72.613281 131.15625 71.824219 130.785156 71.125 C 129.5 68.722656 124.804688 66.117188 125.3125 70.964844 Z M 101.855469 100.929688 C 102.910156 101.863281 104.730469 102.003906 105.648438 100.9375 C 105.980469 100.554688 106.164062 100.070312 106.269531 99.574219 C 106.792969 97.113281 104.519531 94.300781 101.808594 94.929688 C 99.195312 95.542969 100.304688 99.554688 101.855469 100.929688 Z M 78.765625 126.589844 C 79.765625 127.320312 81.21875 127.882812 82.171875 127.085938 C 82.507812 126.8125 82.710938 126.40625 82.84375 125.996094 C 83.378906 124.324219 82.78125 122.425781 81.589844 121.140625 C 80.390625 119.835938 77.675781 118.046875 76.257812 119.828125 C 74.445312 122.097656 77 125.304688 78.765625 126.589844 Z M 101.464844 119.9375 C 100.617188 120.8125 100.257812 122.128906 100.539062 123.316406 C 100.824219 124.5 101.738281 125.515625 102.890625 125.914062 C 103.550781 126.144531 104.382812 126.140625 104.851562 125.621094 C 105.109375 125.332031 105.210938 124.9375 105.285156 124.554688 C 105.511719 123.339844 105.496094 122.007812 104.851562 120.953125 C 104.207031 119.894531 102.78125 119.253906 101.671875 119.800781 M 127.925781 102.570312 C 128.535156 102.671875 129.21875 102.609375 129.675781 102.195312 C 130.089844 101.820312 130.238281 101.230469 130.296875 100.675781 C 130.542969 98.273438 128.785156 93.695312 125.789062 95.9375 C 123.113281 97.941406 125.007812 102.101562 127.925781 102.570312 Z M 150.796875 123.582031 C 151.433594 124.363281 152.195312 125.078125 153.140625 125.417969 C 154.085938 125.757812 155.246094 125.644531 155.949219 124.925781 C 156.765625 124.097656 156.75 122.730469 156.292969 121.664062 C 155.617188 120.074219 153.085938 117.972656 151.203125 118.222656 C 148.335938 118.605469 149.546875 122.054688 150.796875 123.582031 Z M 125.023438 123.945312 C 125.433594 124.601562 125.929688 125.230469 126.59375 125.625 C 127.261719 126.023438 128.125 126.152344 128.816406 125.804688 C 129.625 125.394531 130.023438 124.4375 130.082031 123.535156 C 130.203125 121.574219 128.269531 118.417969 125.984375 118.488281 C 123.0625 118.574219 124.003906 122.296875 125.023438 123.945312 Z M 124.808594 145.539062 C 125.332031 146.96875 126.710938 148 128.207031 148.296875 C 129.078125 148.464844 130.097656 148.355469 130.664062 147.667969 C 131.070312 147.175781 131.152344 146.492188 131.101562 145.855469 C 130.664062 140.726562 122.769531 139.984375 124.808594 145.539062 Z M 99.175781 147.472656 C 99.574219 149.152344 101.039062 150.503906 102.730469 150.867188 C 103.207031 150.972656 103.714844 151.003906 104.179688 150.84375 C 104.875 150.609375 105.382812 149.976562 105.628906 149.28125 C 106.125 147.863281 105.609375 146.210938 104.558594 145.140625 C 102.125 142.667969 98.1875 143.296875 99.175781 147.472656 Z M 116.503906 220.285156 C 117.550781 221.390625 119.441406 221.726562 120.632812 220.78125 C 123.113281 218.808594 123.027344 212.515625 119.011719 212.597656 C 115.238281 212.675781 114.207031 217.875 116.503906 220.285156 Z M 117.546875 242.570312 C 117.554688 243.609375 117.789062 244.722656 118.554688 245.421875 C 119.648438 246.421875 121.523438 246.171875 122.566406 245.121094 C 123.609375 244.066406 123.910156 242.449219 123.6875 240.984375 C 123.613281 240.503906 123.484375 240.019531 123.195312 239.628906 C 120.542969 236.089844 117.523438 239.265625 117.546875 242.570312 Z M 94.59375 245.292969 C 95.765625 246.175781 97.5625 246.195312 98.660156 245.21875 C 99.347656 244.609375 99.714844 243.707031 99.882812 242.804688 C 100.316406 240.457031 97.558594 237.953125 95.152344 238.691406 C 92.453125 239.523438 92.667969 243.839844 94.59375 245.292969 Z M 95.132812 264.203125 C 94.488281 265.410156 94.496094 266.941406 95.152344 268.148438 C 95.714844 269.1875 96.871094 269.992188 98.039062 269.796875 C 98.863281 269.660156 99.550781 269.050781 99.980469 268.335938 C 100.410156 267.617188 100.625 266.792969 100.820312 265.980469 C 101.078125 264.941406 101.3125 263.8125 100.910156 262.816406 C 99.820312 260.140625 96.011719 262.558594 95.132812 264.203125 Z M 69.675781 267.425781 C 70.363281 269.003906 72.34375 270.011719 73.921875 269.3125 C 76.878906 267.996094 77.53125 262.613281 74.148438 261.417969 C 70.777344 260.230469 68.464844 264.652344 69.675781 267.425781 Z M 71.269531 292.359375 C 71.796875 293.820312 73.503906 294.550781 75.054688 294.496094 C 75.644531 294.476562 76.25 294.355469 76.722656 294.007812 C 77.371094 293.535156 77.660156 292.722656 77.871094 291.945312 C 78.457031 289.769531 78.023438 285.996094 74.867188 286.171875 C 72.503906 286.300781 70.527344 290.304688 71.269531 292.359375 Z M 96.359375 314.476562 C 96.238281 315.378906 96.367188 316.335938 96.859375 317.101562 C 97.355469 317.867188 98.253906 318.390625 99.160156 318.308594 C 100.3125 318.199219 101.167969 317.191406 101.726562 316.175781 C 102.421875 314.90625 102.863281 313.386719 102.417969 312.011719 C 100.972656 307.574219 96.714844 311.777344 96.359375 314.476562 Z M 96.035156 289.191406 C 95.527344 290.5625 95.605469 292.382812 96.847656 293.164062 C 97.5625 293.609375 98.496094 293.582031 99.289062 293.300781 C 105.359375 291.148438 98.664062 282.097656 96.035156 289.191406 Z M 123.242188 269.882812 C 127.550781 269.527344 126.304688 263.4375 122.492188 263.121094 C 117.613281 262.71875 119.199219 270.214844 123.242188 269.882812 Z M 141.402344 244.402344 C 141.726562 245.269531 142.433594 246.03125 143.335938 246.230469 C 144.328125 246.445312 145.378906 245.949219 146.050781 245.1875 C 147.726562 243.285156 148.90625 237.75 145.300781 237.191406 C 141.820312 236.65625 140.464844 241.929688 141.402344 244.402344 Z M 144.828125 266.382812 C 144.460938 267.511719 144.53125 268.75 144.84375 269.894531 C 145.078125 270.746094 145.457031 271.589844 146.125 272.167969 C 146.796875 272.742188 147.800781 272.984375 148.585938 272.582031 C 149.425781 272.15625 149.789062 271.15625 149.984375 270.234375 C 150.214844 269.125 150.308594 267.988281 150.257812 266.859375 C 150.074219 262.597656 146.066406 262.558594 144.828125 266.382812 Z M 145.0625 294.144531 C 145.355469 295.164062 146.191406 296.089844 147.246094 296.191406 C 148.074219 296.265625 148.886719 295.820312 149.417969 295.1875 C 149.953125 294.550781 150.246094 293.746094 150.449219 292.945312 C 150.996094 290.773438 150.972656 286.832031 147.546875 287.558594 C 145.15625 288.066406 144.511719 292.214844 145.0625 294.144531 Z M 120.648438 294.839844 C 121.300781 295.121094 122.027344 295.28125 122.730469 295.171875 C 126.601562 294.558594 127.335938 287.734375 122.871094 287.425781 C 118.523438 287.125 116.167969 292.933594 120.648438 294.839844 Z M 211.703125 263.726562 C 212.011719 265.855469 213.753906 267.816406 215.902344 267.972656 C 216.230469 267.996094 216.574219 267.980469 216.863281 267.824219 C 217.386719 267.546875 217.601562 266.921875 217.738281 266.34375 C 218.304688 263.871094 218.050781 260 215.171875 258.964844 C 212.34375 257.941406 211.382812 261.496094 211.703125 263.726562 Z M 238.839844 232.902344 C 238.484375 232.679688 238.117188 233.175781 238.027344 233.582031 C 237.773438 234.746094 237.878906 235.988281 238.332031 237.097656 C 238.660156 237.90625 239.203125 238.675781 239.992188 239.058594 C 240.78125 239.445312 241.835938 239.359375 242.417969 238.703125 C 242.757812 238.316406 242.902344 237.792969 242.941406 237.285156 C 243.105469 235.105469 241.25 232.984375 239.066406 232.855469 M 237.132812 262.429688 C 237.886719 263.367188 239.007812 264.226562 240.1875 263.992188 C 241.050781 263.820312 241.714844 263.082031 242.023438 262.257812 C 242.328125 261.4375 242.332031 260.53125 242.285156 259.65625 C 242.007812 254.289062 232.199219 256.332031 237.132812 262.429688 Z M 260.96875 233.898438 C 261.105469 235.421875 261.9375 236.867188 263.1875 237.75 C 263.980469 238.308594 265.074219 238.636719 265.917969 238.148438 C 266.714844 237.6875 266.992188 236.679688 267.101562 235.769531 C 267.273438 234.351562 267.203125 232.851562 266.507812 231.605469 C 264.382812 227.777344 260.640625 230.207031 260.96875 233.898438 Z M 288.722656 237.78125 C 289.191406 237.816406 289.6875 237.773438 290.089844 237.53125 C 290.449219 237.316406 290.699219 236.964844 290.898438 236.601562 C 292.367188 233.925781 290.277344 227.246094 286.375 229.253906 C 282.445312 231.273438 284.875 237.496094 288.722656 237.78125 Z M 260.132812 257.617188 C 260.027344 258.726562 260.515625 259.8125 261.140625 260.734375 C 261.648438 261.480469 262.265625 262.175781 263.066406 262.59375 C 263.863281 263.015625 264.855469 263.121094 265.660156 262.707031 C 266.804688 262.117188 267.230469 260.695312 267.359375 259.414062 C 267.472656 258.320312 267.417969 257.105469 266.675781 256.296875 C 265.066406 254.539062 260.40625 254.773438 260.132812 257.617188 Z M 285.84375 260.40625 C 286.695312 261.574219 288.0625 262.359375 289.503906 262.503906 C 289.84375 262.535156 290.203125 262.53125 290.5 262.363281 C 290.75 262.222656 290.925781 261.984375 291.070312 261.742188 C 292.113281 260.050781 292.148438 257.75 291.039062 256.097656 C 287.765625 251.238281 282.675781 256.054688 285.84375 260.40625 Z M 261.613281 282.144531 C 261.621094 283.429688 261.8125 284.742188 262.390625 285.890625 C 262.972656 287.042969 263.984375 288.015625 265.230469 288.339844 C 265.851562 288.5 266.546875 288.488281 267.101562 288.160156 C 267.949219 287.65625 268.238281 286.574219 268.371094 285.597656 C 268.507812 284.558594 268.546875 283.488281 268.277344 282.476562 C 268.011719 281.464844 267.402344 280.507812 266.484375 280 C 264.078125 278.660156 261.59375 279.164062 261.613281 282.144531 Z M 238.898438 288.921875 C 239.628906 289.371094 240.632812 289.605469 241.304688 289.070312 C 241.675781 288.769531 241.859375 288.292969 241.976562 287.828125 C 242.492188 285.777344 241.128906 279.675781 237.886719 281.386719 C 235.019531 282.902344 236.824219 287.644531 238.898438 288.921875 Z M 310.304688 285.460938 C 311.035156 286.222656 312.179688 286.753906 313.144531 286.332031 C 313.851562 286.027344 314.277344 285.304688 314.558594 284.589844 C 315.089844 283.242188 315.261719 281.671875 314.625 280.367188 C 313.785156 278.648438 310.984375 277.546875 309.609375 279.058594 C 308.125 280.699219 308.957031 284.054688 310.304688 285.460938 Z M 287.800781 287.511719 C 288.679688 287.957031 289.8125 287.984375 290.601562 287.398438 C 291.4375 286.777344 291.714844 285.65625 291.808594 284.617188 C 292.070312 281.84375 289.46875 278.636719 286.429688 280.1875 C 283.535156 281.667969 285.554688 286.367188 287.800781 287.511719 Z M 285.214844 306.214844 C 285.261719 306.742188 285.5 307.242188 285.785156 307.691406 C 286.453125 308.765625 287.421875 309.648438 288.550781 310.21875 C 289.242188 310.574219 290.105469 310.800781 290.773438 310.398438 C 291.222656 310.125 291.476562 309.625 291.65625 309.136719 C 292.257812 307.488281 292.207031 305.507812 291.144531 304.109375 C 289.21875 301.574219 284.914062 302.753906 285.214844 306.214844 Z M 259.597656 311.179688 C 260.171875 311.75 261.007812 312.101562 261.804688 311.949219 C 262.953125 311.730469 263.6875 310.550781 263.882812 309.398438 C 264.246094 307.242188 262.277344 302.671875 259.441406 304.042969 C 257.039062 305.210938 258.136719 309.726562 259.597656 311.179688 Z M 282.492188 59.371094 C 284.847656 56.652344 280.917969 50.089844 277.761719 53.859375 C 275.144531 56.984375 280.078125 62.164062 282.492188 59.371094 Z M 256.648438 82.679688 C 257.226562 83.085938 257.863281 83.460938 258.570312 83.523438 C 259.972656 83.652344 261.277344 82.378906 261.382812 80.972656 C 261.488281 79.566406 260.5625 78.207031 259.300781 77.574219 C 254.777344 75.300781 252.898438 80.050781 256.648438 82.679688 Z M 279.210938 82.167969 C 279.75 82.660156 280.445312 82.957031 281.15625 83.125 C 281.953125 83.316406 282.867188 83.335938 283.523438 82.839844 C 284.011719 82.460938 284.269531 81.847656 284.351562 81.234375 C 284.519531 80.027344 284.027344 78.753906 283.101562 77.964844 C 279.890625 75.242188 276.273438 79.488281 279.210938 82.167969 Z M 305.039062 83.144531 C 305.945312 83.730469 307.125 83.886719 308.15625 83.554688 C 308.535156 83.433594 308.902344 83.242188 309.152344 82.929688 C 309.390625 82.621094 309.492188 82.226562 309.53125 81.835938 C 309.667969 80.445312 309.019531 78.972656 307.835938 78.230469 C 304.171875 75.953125 301.675781 80.96875 305.039062 83.144531 Z M 282.023438 108.570312 C 283.015625 108.902344 284.222656 108.917969 285.011719 108.226562 C 285.558594 107.742188 285.8125 106.996094 285.859375 106.265625 C 286.027344 103.632812 282.863281 100.3125 280.148438 101.902344 C 277.148438 103.65625 279.585938 107.742188 282.023438 108.570312 Z M 305.492188 108.171875 C 306.394531 109.382812 308.214844 110 309.46875 109.160156 C 310.511719 108.460938 310.8125 107.074219 310.90625 105.820312 C 310.960938 105.054688 310.957031 104.234375 310.539062 103.59375 C 308.304688 100.183594 302.636719 104.359375 305.492188 108.171875 Z M 306.011719 132.128906 C 307.097656 133.25 309.125 133.519531 310.199219 132.386719 C 310.980469 131.558594 311.0625 130.308594 311.039062 129.171875 C 310.917969 123.605469 301.625 127.589844 306.011719 132.128906 Z M 283.054688 132.585938 C 283.957031 132.761719 284.964844 132.722656 285.695312 132.160156 C 286.390625 131.625 286.695312 130.710938 286.726562 129.835938 C 286.835938 126.90625 283.621094 124.597656 280.960938 126.300781 C 277.929688 128.242188 280.277344 132.039062 283.054688 132.585938 Z M 260.253906 109.125 C 260.960938 108.863281 261.488281 108.234375 261.792969 107.546875 C 262.09375 106.851562 262.195312 106.089844 262.273438 105.339844 C 262.335938 104.746094 262.382812 104.128906 262.171875 103.574219 C 261.222656 101.046875 256.707031 100.605469 255.605469 103.1875 C 254.539062 105.679688 257.296875 110.207031 260.253906 109.125 Z M 256.945312 131.039062 C 258.222656 132.113281 260.320312 132.089844 261.519531 130.925781 C 262.714844 129.761719 262.765625 127.597656 261.570312 126.429688 C 257.933594 122.875 253.242188 127.902344 256.945312 131.039062 Z M 259.101562 155.929688 C 260.304688 156.257812 261.6875 156.0625 262.632812 155.257812 C 263.589844 154.449219 264 152.996094 263.453125 151.875 C 262.527344 149.992188 259.109375 148.894531 257.539062 150.554688 C 255.792969 152.40625 256.753906 155.292969 259.101562 155.929688 Z M 233.933594 125.222656 C 233.183594 125.714844 232.742188 126.625 232.75 127.523438 C 232.753906 128.421875 233.179688 129.296875 233.835938 129.914062 C 234.601562 130.632812 235.816406 131 236.726562 130.472656 C 237.550781 130 237.890625 128.921875 237.726562 127.980469 C 237.5625 127.046875 236.957031 126.191406 236.128906 125.726562 C 235.296875 125.261719 234.257812 125.191406 233.371094 125.539062 M 231.460938 100.171875 C 232.816406 97.933594 235.851562 99.644531 236.484375 101.570312 C 236.964844 103.039062 236.628906 104.746094 235.628906 105.921875 C 235.429688 106.160156 235.191406 106.378906 234.894531 106.464844 C 234.554688 106.5625 234.183594 106.460938 233.867188 106.300781 C 232.25 105.492188 230.40625 101.914062 231.460938 100.171875 " fill-opacity="1" fill-rule="nonzero"/><path fill="#e4ad88" d="M 247.265625 185.816406 C 248.964844 188.136719 249.964844 191.152344 249.234375 193.9375 C 248.832031 195.46875 247.949219 196.816406 247.070312 198.128906 C 234.539062 216.804688 219.457031 233.765625 202.371094 248.386719 C 200.085938 250.34375 197.535156 252.351562 194.53125 252.507812 C 190.667969 252.707031 187.414062 249.832031 184.628906 247.144531 C 171.976562 234.921875 159.320312 222.691406 146.667969 210.464844 C 142.535156 206.476562 138.421875 203.578125 134.34375 199.53125 C 131.703125 196.914062 128.976562 193.542969 129.746094 189.910156 C 130.101562 188.222656 131.179688 186.792969 132.234375 185.429688 C 145.816406 167.875 160.867188 151.449219 177.175781 136.394531 C 180.097656 133.699219 183.589844 130.863281 187.539062 131.308594 C 190.085938 131.597656 192.257812 133.222656 194.269531 134.8125 C 210.949219 147.996094 245.5625 183.492188 247.265625 185.816406 " fill-opacity="1" fill-rule="nonzero"/></svg>