<svg xmlns="http://www.w3.org/2000/svg" xmlns:xlink="http://www.w3.org/1999/xlink" width="500" zoomAndPan="magnify" viewBox="0 0 375 374.999991" height="500" preserveAspectRatio="xMidYMid meet" version="1.0"><defs><clipPath id="632aa9f670"><path d="M 58.03125 79 L 237 79 L 237 333 L 58.03125 333 Z M 58.03125 79 " clip-rule="nonzero"/></clipPath></defs><rect x="-37.5" width="450" fill="#ffffff" y="-37.499999" height="449.999989" fill-opacity="1"/><rect x="-37.5" width="450" fill="#ffffff" y="-37.499999" height="449.999989" fill-opacity="1"/><g clip-path="url(#632aa9f670)"><path fill="#f6eaff" d="M 235.996094 147.277344 C 237.210938 129.929688 220.625 112.515625 206.152344 103.609375 C 205.753906 103.367188 205.398438 103.070312 205.082031 102.726562 C 204.765625 102.382812 204.503906 102.003906 204.289062 101.589844 C 204.078125 101.171875 203.925781 100.738281 203.835938 100.28125 C 203.742188 99.820312 203.714844 99.359375 203.75 98.894531 C 204.082031 94.710938 204.410156 90.527344 204.734375 86.34375 C 178.804688 82.664062 152.757812 80.316406 126.585938 79.296875 C 125.929688 83.367188 125.277344 87.433594 124.632812 91.503906 C 124.46875 92.441406 124.078125 93.273438 123.460938 94 C 122.84375 94.726562 122.089844 95.25 121.191406 95.566406 C 104.976562 101.394531 84.761719 114.457031 81.890625 131.066406 C 72.765625 184.570312 65.160156 238.257812 59.074219 292.121094 C 58.222656 299.738281 64.328125 308.964844 71.914062 313.019531 C 101.425781 328.808594 167.304688 335.808594 199.472656 331.34375 C 200.757812 331.183594 202.019531 330.921875 203.261719 330.558594 C 204.5 330.195312 205.703125 329.730469 206.867188 329.167969 C 208.03125 328.605469 209.144531 327.953125 210.203125 327.207031 C 211.257812 326.464844 212.25 325.636719 213.171875 324.730469 C 214.09375 323.824219 214.9375 322.851562 215.699219 321.804688 C 216.460938 320.761719 217.132812 319.660156 217.71875 318.503906 C 218.300781 317.351562 218.785156 316.15625 219.171875 314.921875 C 219.558594 313.6875 219.839844 312.429688 220.019531 311.148438 C 227.628906 252.164062 231.261719 212.828125 235.996094 147.277344 Z M 235.996094 147.277344 " fill-opacity="1" fill-rule="nonzero"/></g><path fill="#eccdff" d="M 225.113281 269.542969 C 226.734375 255.316406 228.152344 241.679688 229.472656 227.726562 C 228.945312 227.429688 228.398438 227.175781 227.828125 226.96875 C 227.261719 226.761719 226.679688 226.601562 226.085938 226.488281 C 225.492188 226.375 224.890625 226.308594 224.289062 226.292969 C 223.683594 226.277344 223.082031 226.308594 222.480469 226.386719 C 221.882812 226.46875 221.292969 226.597656 220.714844 226.773438 C 220.136719 226.949219 219.574219 227.171875 219.03125 227.4375 C 218.488281 227.703125 217.972656 228.011719 217.476562 228.363281 C 216.984375 228.714844 216.523438 229.101562 216.09375 229.527344 C 210.261719 234.988281 209.660156 244.589844 213.730469 251.8125 C 217.191406 257.9375 220.984375 263.847656 225.113281 269.542969 Z M 225.113281 269.542969 " fill-opacity="1" fill-rule="nonzero"/><path fill="#eccdff" d="M 203.992188 100.71875 C 203.796875 100.125 203.714844 99.515625 203.75 98.886719 C 204.085938 94.703125 204.414062 90.519531 204.734375 86.335938 C 178.804688 82.660156 152.757812 80.3125 126.585938 79.296875 C 125.929688 83.367188 125.277344 87.433594 124.632812 91.503906 C 124.46875 92.441406 124.078125 93.273438 123.460938 94 C 122.84375 94.726562 122.089844 95.25 121.191406 95.566406 C 120.929688 95.660156 120.660156 95.773438 120.394531 95.867188 C 137.449219 94.003906 175.636719 91.359375 203.992188 100.71875 Z M 203.992188 100.71875 " fill-opacity="1" fill-rule="nonzero"/><path fill="#eccdff" d="M 220.027344 311.152344 C 221.550781 299.335938 222.910156 288.332031 224.152344 277.722656 C 163.597656 302.707031 86.335938 267.394531 72.691406 188.894531 C 67.539062 223.246094 62.9375 257.648438 59.082031 292.121094 C 58.230469 299.738281 64.335938 308.964844 71.921875 313.019531 C 101.433594 328.808594 167.3125 335.808594 199.480469 331.34375 C 200.765625 331.183594 202.027344 330.925781 203.265625 330.558594 C 204.507812 330.195312 205.710938 329.730469 206.875 329.167969 C 208.039062 328.605469 209.148438 327.953125 210.207031 327.210938 C 211.265625 326.464844 212.253906 325.640625 213.179688 324.734375 C 214.101562 323.828125 214.941406 322.851562 215.707031 321.808594 C 216.46875 320.761719 217.140625 319.664062 217.722656 318.507812 C 218.304688 317.355469 218.789062 316.160156 219.175781 314.925781 C 219.5625 313.691406 219.847656 312.433594 220.027344 311.152344 Z M 220.027344 311.152344 " fill-opacity="1" fill-rule="nonzero"/><path fill="#deb6fc" d="M 220.027344 311.152344 C 220.8125 305.050781 221.554688 299.175781 222.257812 293.449219 C 221.117188 293.683594 220 293.992188 218.902344 294.378906 C 217.800781 294.761719 216.734375 295.21875 215.699219 295.75 C 214.660156 296.277344 213.664062 296.875 212.710938 297.539062 C 211.753906 298.203125 210.847656 298.929688 209.988281 299.714844 C 209.128906 300.5 208.328125 301.34375 207.585938 302.238281 C 206.839844 303.132812 206.160156 304.074219 205.542969 305.058594 C 204.925781 306.046875 204.378906 307.070312 203.898438 308.132812 C 203.421875 309.195312 203.015625 310.28125 202.683594 311.398438 C 201.886719 314.550781 201.507812 317.753906 201.546875 321.007812 C 201.589844 324.257812 202.046875 327.449219 202.925781 330.582031 C 204.027344 330.28125 205.105469 329.902344 206.15625 329.445312 C 207.203125 328.988281 208.214844 328.457031 209.183594 327.851562 C 210.15625 327.25 211.078125 326.574219 211.953125 325.835938 C 212.824219 325.097656 213.640625 324.296875 214.394531 323.4375 C 215.152344 322.578125 215.839844 321.667969 216.464844 320.710938 C 217.085938 319.75 217.636719 318.75 218.113281 317.710938 C 218.589844 316.667969 218.988281 315.601562 219.3125 314.5 C 219.632812 313.402344 219.871094 312.289062 220.027344 311.152344 Z M 220.027344 311.152344 " fill-opacity="1" fill-rule="nonzero"/><path fill="#a75eff" d="M 209.074219 92.15625 C 211.414062 92.082031 213.097656 91.296875 213.359375 88.992188 C 214.5625 78.359375 215.761719 62.394531 216.222656 50.597656 C 216.230469 50.082031 216.148438 49.582031 215.980469 49.09375 C 215.8125 48.609375 215.566406 48.164062 215.238281 47.765625 C 214.914062 47.367188 214.53125 47.035156 214.085938 46.769531 C 213.644531 46.507812 213.171875 46.324219 212.664062 46.230469 C 198.8125 42.976562 184.796875 40.804688 170.609375 39.71875 C 156.425781 38.628906 142.242188 38.640625 128.058594 39.742188 C 125.808594 39.917969 124.5 40.339844 123.90625 42.710938 C 121.210938 55.289062 119.21875 67.980469 117.929688 80.78125 C 117.675781 83.035156 118.777344 83.902344 121.070312 84.355469 C 150.105469 90.363281 179.4375 92.964844 209.074219 92.15625 Z M 209.074219 92.15625 " fill-opacity="1" fill-rule="nonzero"/><path fill="#fc54a1" d="M 186.003906 291.242188 C 192.101562 291.125 197.578125 287.808594 198.25 282.304688 C 202.851562 244.378906 206.933594 206.417969 210.5 168.414062 C 210.523438 167.734375 210.480469 167.058594 210.375 166.386719 C 210.273438 165.710938 210.105469 165.054688 209.878906 164.414062 C 209.652344 163.769531 209.371094 163.15625 209.03125 162.566406 C 208.6875 161.976562 208.296875 161.421875 207.851562 160.90625 C 207.410156 160.390625 206.921875 159.917969 206.390625 159.492188 C 205.859375 159.066406 205.292969 158.695312 204.695312 158.375 C 204.09375 158.054688 203.46875 157.792969 202.820312 157.585938 C 202.167969 157.382812 201.507812 157.238281 200.832031 157.160156 C 172.15625 151.789062 143.234375 148.691406 114.070312 147.859375 C 108.183594 147.710938 102.785156 151.222656 101.992188 156.59375 C 96.464844 193.652344 91.351562 230.773438 86.652344 267.953125 C 85.96875 273.34375 90.4375 278 96.332031 279.554688 C 110.933594 283.582031 125.742188 286.570312 140.761719 288.527344 C 155.777344 290.484375 170.859375 291.390625 186.003906 291.242188 Z M 186.003906 291.242188 " fill-opacity="1" fill-rule="nonzero"/><path fill="#e82d8f" d="M 90.941406 235.503906 C 89.5 246.3125 88.023438 257.121094 86.652344 267.953125 C 85.96875 273.34375 90.4375 278 96.332031 279.554688 C 110.933594 283.582031 125.742188 286.570312 140.761719 288.527344 C 155.777344 290.484375 170.859375 291.390625 186.003906 291.242188 C 187.171875 291.296875 188.328125 291.191406 189.46875 290.921875 C 190.609375 290.648438 191.691406 290.226562 192.710938 289.652344 C 193.730469 289.074219 194.652344 288.367188 195.472656 287.53125 C 196.296875 286.695312 196.984375 285.761719 197.542969 284.730469 C 194.984375 285.042969 192.417969 285.269531 189.84375 285.40625 C 187.269531 285.542969 184.695312 285.589844 182.117188 285.546875 C 179.542969 285.503906 176.96875 285.371094 174.402344 285.152344 C 171.835938 284.929688 169.277344 284.621094 166.730469 284.222656 C 164.183594 283.824219 161.65625 283.335938 159.140625 282.761719 C 156.628906 282.1875 154.140625 281.527344 151.671875 280.78125 C 149.207031 280.035156 146.769531 279.203125 144.359375 278.289062 C 141.949219 277.371094 139.574219 276.375 137.234375 275.292969 C 134.894531 274.214844 132.597656 273.054688 130.335938 271.8125 C 128.078125 270.574219 125.863281 269.257812 123.695312 267.863281 C 121.527344 266.46875 119.410156 265 117.34375 263.460938 C 115.277344 261.921875 113.265625 260.308594 111.3125 258.628906 C 109.355469 256.949219 107.464844 255.203125 105.628906 253.394531 C 103.796875 251.582031 102.027344 249.707031 100.324219 247.773438 C 98.621094 245.839844 96.984375 243.847656 95.417969 241.800781 C 93.855469 239.753906 92.359375 237.65625 90.941406 235.503906 Z M 90.941406 235.503906 " fill-opacity="1" fill-rule="nonzero"/><path fill="#f6eaff" d="M 160.648438 171.382812 C 156.992188 170.976562 153.335938 170.578125 149.679688 170.179688 C 149.375 170.152344 149.082031 170.179688 148.789062 170.265625 C 148.5 170.351562 148.234375 170.488281 148 170.679688 C 147.761719 170.871094 147.570312 171.097656 147.421875 171.363281 C 147.273438 171.625 147.183594 171.910156 147.148438 172.210938 C 146.71875 175.652344 146.292969 179.089844 145.867188 182.523438 C 145.832031 182.828125 145.738281 183.109375 145.589844 183.375 C 145.441406 183.640625 145.246094 183.871094 145.011719 184.058594 C 144.773438 184.246094 144.507812 184.386719 144.214844 184.46875 C 143.921875 184.554688 143.625 184.582031 143.324219 184.546875 L 133.078125 183.386719 C 132.777344 183.355469 132.480469 183.382812 132.1875 183.464844 C 131.898438 183.550781 131.632812 183.683594 131.394531 183.871094 C 131.152344 184.058594 130.960938 184.285156 130.808594 184.550781 C 130.660156 184.8125 130.5625 185.097656 130.523438 185.398438 C 130.042969 189.082031 129.5625 192.765625 129.082031 196.449219 C 129.042969 196.746094 129.0625 197.042969 129.144531 197.335938 C 129.222656 197.628906 129.355469 197.890625 129.542969 198.128906 C 129.726562 198.367188 129.953125 198.5625 130.214844 198.710938 C 130.480469 198.859375 130.761719 198.949219 131.0625 198.984375 C 134.496094 199.394531 137.929688 199.800781 141.359375 200.203125 C 141.660156 200.238281 141.945312 200.328125 142.210938 200.476562 C 142.472656 200.625 142.699219 200.820312 142.886719 201.058594 C 143.074219 201.296875 143.207031 201.5625 143.289062 201.855469 C 143.367188 202.148438 143.390625 202.445312 143.351562 202.746094 C 142.925781 206.1875 142.496094 209.628906 142.070312 213.074219 C 142.035156 213.378906 142.054688 213.675781 142.136719 213.96875 C 142.21875 214.261719 142.351562 214.527344 142.542969 214.769531 C 142.730469 215.007812 142.957031 215.203125 143.222656 215.351562 C 143.484375 215.5 143.769531 215.59375 144.074219 215.628906 C 147.785156 216.074219 151.5 216.515625 155.214844 216.953125 C 155.519531 216.988281 155.816406 216.964844 156.113281 216.882812 C 156.40625 216.796875 156.671875 216.660156 156.910156 216.472656 C 157.152344 216.285156 157.347656 216.054688 157.496094 215.789062 C 157.644531 215.523438 157.734375 215.238281 157.773438 214.933594 C 158.183594 211.484375 158.597656 208.03125 159.007812 204.582031 C 159.042969 204.277344 159.132812 203.992188 159.28125 203.726562 C 159.429688 203.460938 159.621094 203.234375 159.859375 203.042969 C 160.101562 202.851562 160.367188 202.714844 160.660156 202.632812 C 160.953125 202.546875 161.25 202.523438 161.550781 202.554688 C 164.988281 202.949219 168.421875 203.339844 171.855469 203.730469 C 172.160156 203.761719 172.457031 203.734375 172.75 203.652344 C 173.039062 203.566406 173.304688 203.425781 173.542969 203.238281 C 173.78125 203.046875 173.972656 202.816406 174.121094 202.550781 C 174.265625 202.285156 174.355469 202 174.390625 201.695312 C 174.8125 197.976562 175.230469 194.253906 175.648438 190.527344 C 175.683594 190.226562 175.660156 189.929688 175.578125 189.636719 C 175.496094 189.347656 175.359375 189.082031 175.171875 188.84375 C 174.984375 188.601562 174.757812 188.410156 174.492188 188.261719 C 174.226562 188.113281 173.945312 188.019531 173.644531 187.984375 L 163.398438 186.828125 C 163.097656 186.792969 162.8125 186.699219 162.550781 186.550781 C 162.285156 186.402344 162.058594 186.210938 161.871094 185.972656 C 161.6875 185.734375 161.550781 185.46875 161.472656 185.175781 C 161.390625 184.882812 161.367188 184.585938 161.40625 184.285156 C 161.808594 180.835938 162.214844 177.386719 162.621094 173.933594 C 162.660156 173.632812 162.640625 173.339844 162.5625 173.046875 C 162.484375 172.753906 162.351562 172.484375 162.167969 172.246094 C 161.980469 172.007812 161.757812 171.8125 161.492188 171.660156 C 161.230469 171.511719 160.949219 171.417969 160.648438 171.382812 Z M 160.648438 171.382812 " fill-opacity="1" fill-rule="nonzero"/><path fill="#ffc35a" d="M 105.480469 230.222656 C 105.0625 232.683594 104.640625 235.140625 104.222656 237.601562 C 132.257812 242.148438 160.464844 245.570312 188.847656 247.871094 L 189.46875 240.480469 C 161.34375 238.132812 133.34375 234.714844 105.480469 230.222656 Z M 105.480469 230.222656 " fill-opacity="1" fill-rule="nonzero"/><path fill="#ffc35a" d="M 101.78125 252.0625 C 130.183594 256.707031 158.773438 260.136719 187.546875 262.351562 C 187.769531 259.890625 187.992188 257.425781 188.210938 254.960938 C 159.675781 252.699219 131.28125 249.273438 103.023438 244.679688 C 102.609375 247.144531 102.195312 249.605469 101.78125 252.0625 Z M 101.78125 252.0625 " fill-opacity="1" fill-rule="nonzero"/><path fill="#ffae39" d="M 104.863281 252.53125 C 103.953125 251.613281 103.058594 250.679688 102.175781 249.730469 C 102.042969 250.507812 101.914062 251.285156 101.78125 252.0625 C 102.804688 252.230469 103.835938 252.367188 104.863281 252.53125 Z M 104.863281 252.53125 " fill-opacity="1" fill-rule="nonzero"/><path fill="#ffc35a" d="M 118.566406 269.5 C 134.589844 271.8125 150.675781 273.71875 166.816406 275.21875 C 167.089844 272.75 167.363281 270.28125 167.636719 267.808594 C 151.601562 266.289062 135.613281 264.386719 119.675781 262.097656 C 119.308594 264.5625 118.941406 267.03125 118.566406 269.5 Z M 118.566406 269.5 " fill-opacity="1" fill-rule="nonzero"/><path fill="#ffae39" d="M 118.566406 269.5 C 121.949219 269.980469 125.347656 270.386719 128.734375 270.835938 C 125.480469 268.988281 122.324219 266.980469 119.273438 264.8125 C 119.035156 266.375 118.800781 267.941406 118.566406 269.5 Z M 118.566406 269.5 " fill-opacity="1" fill-rule="nonzero"/><path fill="#eccdff" d="M 133.296875 42.394531 C 153.089844 38.933594 198.675781 45.476562 208.445312 48.699219 C 192.496094 52.769531 149.21875 48.71875 133.296875 42.394531 Z M 133.296875 42.394531 " fill-opacity="1" fill-rule="nonzero"/><path fill="#faf3ff" d="M 220.949219 143.570312 C 222.417969 148.4375 223.316406 153.40625 223.640625 158.480469 C 223.964844 163.554688 223.707031 168.597656 222.871094 173.609375 C 222.773438 176.253906 221.925781 178.632812 220.332031 180.742188 C 219.800781 181.253906 219.210938 181.6875 218.566406 182.042969 C 217.921875 182.398438 217.238281 182.664062 216.523438 182.835938 C 215.808594 183.011719 215.082031 183.089844 214.34375 183.070312 C 213.605469 183.054688 212.886719 182.9375 212.179688 182.730469 C 209.304688 181.835938 206.867188 180.265625 204.863281 178.023438 C 202.4375 175.417969 200.402344 172.535156 198.757812 169.378906 C 197.109375 166.21875 195.910156 162.902344 195.15625 159.421875 C 193.664062 152.449219 193.210938 145.410156 193.789062 138.300781 C 193.859375 135.414062 194.339844 132.59375 195.230469 129.84375 C 196.082031 127.507812 198.351562 123.386719 201.132812 122.898438 C 203.835938 122.417969 207.496094 125.433594 209.46875 126.980469 C 212.128906 129.148438 214.433594 131.640625 216.386719 134.460938 C 218.339844 137.28125 219.859375 140.316406 220.949219 143.570312 Z M 220.949219 143.570312 " fill-opacity="1" fill-rule="nonzero"/><path fill="#ff97cc" d="M 210.5 168.414062 C 210.523438 167.734375 210.480469 167.058594 210.375 166.386719 C 210.273438 165.710938 210.105469 165.054688 209.878906 164.414062 C 209.652344 163.773438 209.371094 163.15625 209.027344 162.566406 C 208.6875 161.976562 208.296875 161.425781 207.851562 160.910156 C 207.410156 160.390625 206.921875 159.921875 206.390625 159.496094 C 205.859375 159.070312 205.292969 158.695312 204.691406 158.375 C 204.09375 158.054688 203.46875 157.792969 202.816406 157.589844 C 202.167969 157.386719 201.507812 157.242188 200.832031 157.160156 C 198.738281 156.777344 196.636719 156.425781 194.539062 156.058594 C 194.730469 157.179688 194.894531 158.300781 195.15625 159.40625 C 195.90625 162.886719 197.105469 166.210938 198.753906 169.371094 C 200.402344 172.527344 202.4375 175.414062 204.863281 178.023438 C 206.15625 179.378906 207.613281 180.527344 209.234375 181.472656 C 209.65625 177.117188 210.09375 172.773438 210.5 168.414062 Z M 210.5 168.414062 " fill-opacity="1" fill-rule="nonzero"/><path fill="#9d34e8" d="M 213.359375 88.992188 C 213.628906 86.625 213.890625 83.964844 214.152344 81.175781 C 169.367188 93.484375 135.890625 68.726562 134.738281 46.917969 C 134.738281 46.917969 129.585938 44.644531 124.273438 41.808594 C 124.121094 42.101562 124 42.402344 123.90625 42.71875 C 121.210938 55.300781 119.21875 67.988281 117.929688 80.789062 C 117.675781 83.042969 118.777344 83.914062 121.070312 84.367188 C 150.105469 90.371094 179.4375 92.96875 209.074219 92.15625 C 211.421875 92.082031 213.105469 91.308594 213.359375 88.992188 Z M 213.359375 88.992188 " fill-opacity="1" fill-rule="nonzero"/><path fill="#9d34e8" d="M 206.859375 58.484375 C 206.859375 58.484375 205.542969 83.640625 205.25 87.957031 L 200.144531 87.957031 C 201.34375 83.765625 203.804688 59.144531 203.804688 59.144531 Z M 206.859375 58.484375 " fill-opacity="1" fill-rule="nonzero"/><path fill="#9d34e8" d="M 197.46875 60.390625 C 197.160156 64.472656 193.777344 86.871094 193.777344 86.871094 L 189.890625 86.847656 C 190.746094 83.585938 194.023438 61.160156 194.023438 61.160156 Z M 197.46875 60.390625 " fill-opacity="1" fill-rule="nonzero"/><path fill="#9d34e8" d="M 187.164062 72.132812 C 186.925781 74.8125 183.878906 89.425781 183.878906 89.425781 L 180.003906 89.113281 C 180.808594 87.015625 183.738281 72.386719 183.738281 72.386719 Z M 187.164062 72.132812 " fill-opacity="1" fill-rule="nonzero"/><path fill="#50e3cf" d="M 262.671875 255.457031 C 255.042969 245.597656 246.636719 236.449219 237.453125 228.019531 C 231.675781 222.621094 223.363281 221.609375 217.5625 227.023438 C 216.894531 227.683594 216.289062 228.402344 215.753906 229.175781 C 215.21875 229.949219 214.757812 230.765625 214.375 231.625 C 213.988281 232.484375 213.683594 233.371094 213.460938 234.285156 C 213.242188 235.199219 213.105469 236.125 213.054688 237.066406 C 213.003906 238.003906 213.039062 238.941406 213.160156 239.875 C 213.28125 240.808594 213.488281 241.722656 213.78125 242.617188 C 214.070312 243.511719 214.441406 244.375 214.890625 245.199219 C 215.339844 246.027344 215.859375 246.804688 216.453125 247.535156 C 223.933594 257.484375 232.398438 266.507812 241.847656 274.609375 C 242.527344 275.25 243.261719 275.820312 244.046875 276.328125 C 244.832031 276.835938 245.65625 277.269531 246.519531 277.625 C 247.386719 277.984375 248.273438 278.261719 249.1875 278.457031 C 250.101562 278.652344 251.027344 278.765625 251.960938 278.792969 C 252.894531 278.820312 253.824219 278.765625 254.75 278.625 C 255.671875 278.484375 256.578125 278.261719 257.460938 277.957031 C 258.34375 277.652344 259.195312 277.269531 260.007812 276.8125 C 260.824219 276.355469 261.589844 275.824219 262.308594 275.226562 C 268.023438 270.003906 267.457031 261.746094 262.671875 255.457031 Z M 262.671875 255.457031 " fill-opacity="1" fill-rule="nonzero"/><path fill="#fc54a1" d="M 262.671875 255.457031 C 258.746094 250.324219 254.570312 245.398438 250.144531 240.683594 C 249.800781 241.960938 249.378906 243.210938 248.871094 244.433594 C 248.363281 245.65625 247.78125 246.835938 247.117188 247.984375 C 246.457031 249.128906 245.722656 250.222656 244.917969 251.273438 C 244.113281 252.320312 243.242188 253.3125 242.308594 254.25 C 241.371094 255.183594 240.378906 256.054688 239.332031 256.859375 C 238.28125 257.664062 237.183594 258.394531 236.039062 259.058594 C 234.894531 259.71875 233.710938 260.300781 232.488281 260.808594 C 231.269531 261.3125 230.019531 261.738281 228.742188 262.082031 C 232.894531 266.484375 237.265625 270.660156 241.855469 274.609375 C 242.539062 275.25 243.273438 275.820312 244.058594 276.328125 C 244.84375 276.835938 245.667969 277.269531 246.53125 277.625 C 247.394531 277.984375 248.285156 278.261719 249.199219 278.457031 C 250.113281 278.652344 251.035156 278.765625 251.96875 278.792969 C 252.90625 278.820312 253.832031 278.765625 254.757812 278.625 C 255.683594 278.484375 256.585938 278.261719 257.46875 277.957031 C 258.355469 277.652344 259.203125 277.269531 260.019531 276.8125 C 260.832031 276.355469 261.597656 275.824219 262.316406 275.226562 C 268.023438 270.003906 267.457031 261.746094 262.671875 255.457031 Z M 262.671875 255.457031 " fill-opacity="1" fill-rule="nonzero"/><path fill="#50e3cf" d="M 283.742188 237.640625 C 293.40625 229.765625 302.335938 221.132812 310.53125 211.738281 C 315.78125 205.824219 316.585938 197.492188 311.023438 191.828125 C 310.347656 191.175781 309.613281 190.589844 308.828125 190.074219 C 308.039062 189.558594 307.210938 189.117188 306.34375 188.753906 C 305.476562 188.390625 304.582031 188.109375 303.664062 187.910156 C 302.742188 187.714844 301.8125 187.601562 300.871094 187.574219 C 299.933594 187.546875 298.996094 187.605469 298.066406 187.75 C 297.136719 187.898438 296.230469 188.125 295.339844 188.441406 C 294.453125 188.753906 293.601562 189.144531 292.789062 189.613281 C 291.972656 190.085938 291.207031 190.625 290.492188 191.238281 C 280.738281 198.96875 271.929688 207.660156 264.074219 217.3125 C 263.449219 218.011719 262.894531 218.757812 262.410156 219.554688 C 261.921875 220.351562 261.511719 221.1875 261.175781 222.0625 C 260.839844 222.933594 260.585938 223.828125 260.414062 224.75 C 260.238281 225.667969 260.152344 226.59375 260.144531 227.527344 C 260.140625 228.464844 260.21875 229.390625 260.382812 230.3125 C 260.546875 231.230469 260.792969 232.128906 261.121094 233.007812 C 261.445312 233.882812 261.847656 234.722656 262.328125 235.523438 C 262.808594 236.328125 263.355469 237.078125 263.96875 237.785156 C 269.335938 243.359375 277.578125 242.578125 283.742188 237.640625 Z M 283.742188 237.640625 " fill-opacity="1" fill-rule="nonzero"/><path fill="#21c2d1" d="M 264.605469 216.699219 C 264.433594 216.910156 264.246094 217.105469 264.074219 217.316406 C 263.449219 218.015625 262.894531 218.761719 262.410156 219.558594 C 261.921875 220.359375 261.511719 221.195312 261.175781 222.066406 C 260.839844 222.9375 260.585938 223.835938 260.414062 224.753906 C 260.242188 225.671875 260.152344 226.597656 260.148438 227.535156 C 260.144531 228.46875 260.222656 229.394531 260.386719 230.316406 C 260.550781 231.238281 260.796875 232.136719 261.121094 233.011719 C 261.449219 233.886719 261.851562 234.726562 262.332031 235.527344 C 262.808594 236.332031 263.355469 237.085938 263.972656 237.789062 C 269.335938 243.359375 277.578125 242.59375 283.742188 237.644531 C 293.40625 229.769531 302.335938 221.136719 310.53125 211.746094 C 311.75 210.410156 312.71875 208.914062 313.445312 207.261719 C 314.175781 205.605469 314.617188 203.878906 314.777344 202.082031 C 292.292969 225.976562 267.101562 227.179688 264.605469 216.699219 Z M 264.605469 216.699219 " fill-opacity="1" fill-rule="nonzero"/><path fill="#fc54a1" d="M 283.742188 237.640625 C 288.773438 233.582031 293.589844 229.285156 298.191406 224.742188 C 296.90625 224.429688 295.648438 224.039062 294.414062 223.5625 C 293.179688 223.085938 291.984375 222.53125 290.824219 221.898438 C 289.660156 221.265625 288.546875 220.5625 287.476562 219.78125 C 286.410156 219.003906 285.394531 218.15625 284.4375 217.246094 C 283.480469 216.335938 282.585938 215.363281 281.753906 214.335938 C 280.921875 213.308594 280.164062 212.230469 279.472656 211.101562 C 278.785156 209.972656 278.171875 208.804688 277.632812 207.59375 C 277.097656 206.386719 276.640625 205.148438 276.265625 203.878906 C 271.96875 208.144531 267.902344 212.621094 264.074219 217.3125 C 263.449219 218.011719 262.894531 218.757812 262.410156 219.554688 C 261.921875 220.355469 261.511719 221.1875 261.175781 222.0625 C 260.839844 222.933594 260.585938 223.828125 260.414062 224.75 C 260.242188 225.667969 260.152344 226.59375 260.148438 227.527344 C 260.144531 228.464844 260.222656 229.390625 260.386719 230.3125 C 260.550781 231.230469 260.796875 232.128906 261.121094 233.007812 C 261.449219 233.882812 261.851562 234.722656 262.332031 235.523438 C 262.808594 236.328125 263.355469 237.082031 263.972656 237.785156 C 269.335938 243.359375 277.578125 242.582031 283.742188 237.640625 Z M 283.742188 237.640625 " fill-opacity="1" fill-rule="nonzero"/><path fill="#e82d8f" d="M 291.464844 231.058594 C 293.746094 229.003906 295.988281 226.898438 298.1875 224.746094 C 294.695312 223.863281 291.453125 222.414062 288.464844 220.402344 C 275.953125 225.0625 266.109375 223.046875 264.601562 216.699219 C 264.429688 216.910156 264.242188 217.105469 264.070312 217.316406 C 262.21875 219.578125 261.007812 222.140625 260.441406 225.003906 C 260.078125 226.820312 260.042969 228.644531 260.335938 230.472656 C 260.625 232.296875 261.257812 233.992188 262.230469 235.5625 C 262.730469 236.363281 263.3125 237.105469 263.96875 237.789062 C 264.898438 238.773438 265.960938 239.582031 267.15625 240.214844 C 268.351562 240.851562 269.617188 241.273438 270.953125 241.492188 C 273.660156 241.894531 276.273438 241.574219 278.800781 240.53125 C 280.589844 239.820312 282.238281 238.859375 283.738281 237.648438 C 286.25 235.636719 288.703125 233.554688 291.097656 231.402344 C 291.226562 231.285156 291.339844 231.167969 291.464844 231.058594 Z M 291.464844 231.058594 " fill-opacity="1" fill-rule="nonzero"/><path fill="#ffae39" d="M 263.484375 315.203125 C 264.386719 309.855469 262.355469 309.386719 259.382812 304.953125 L 257.894531 305.863281 C 256.75 304.5 253.699219 301.058594 253.890625 299.042969 C 249.925781 295.921875 245.457031 293.933594 240.484375 293.085938 C 224.675781 290.292969 212.703125 297.253906 210.378906 307.566406 C 208.613281 315.390625 209.441406 324.839844 213.222656 329.875 C 215.308594 332.574219 217.792969 334.839844 220.675781 336.667969 C 223.554688 338.496094 226.660156 339.78125 229.992188 340.519531 C 246.316406 344.316406 261.222656 330.859375 263.484375 315.203125 Z M 263.484375 315.203125 " fill-opacity="1" fill-rule="nonzero"/><path fill="#ffc35a" d="M 263.550781 314.824219 C 263.976562 312.195312 263.890625 309.585938 263.296875 306.992188 C 262.707031 304.394531 261.648438 302.007812 260.128906 299.824219 L 258.640625 300.734375 C 257.496094 299.371094 254.445312 295.929688 254.636719 293.917969 C 250.671875 290.785156 246.199219 288.796875 241.222656 287.945312 C 225.414062 285.152344 213.097656 295.804688 210.660156 306.082031 C 210.324219 307.582031 210.164062 309.097656 210.167969 310.628906 C 210.175781 312.164062 210.347656 313.679688 210.691406 315.171875 C 211.035156 316.667969 211.542969 318.105469 212.207031 319.488281 C 212.871094 320.871094 213.679688 322.160156 214.632812 323.363281 C 216.71875 326.0625 219.203125 328.328125 222.085938 330.160156 C 224.964844 331.988281 228.070312 333.269531 231.402344 334.007812 C 247.738281 337.816406 261.441406 327.257812 263.550781 314.824219 Z M 263.550781 314.824219 " fill-opacity="1" fill-rule="nonzero"/><path fill="#ffae39" d="M 214.632812 323.363281 C 216.277344 325.519531 218.199219 327.390625 220.398438 328.980469 L 258.640625 300.734375 C 257.496094 299.371094 254.445312 295.929688 254.636719 293.917969 L 213.269531 321.339844 C 213.691406 322.03125 214.140625 322.707031 214.632812 323.363281 Z M 214.632812 323.363281 " fill-opacity="1" fill-rule="nonzero"/><path fill="#21c2d1" d="M 263.6875 257.015625 C 261.613281 276.234375 229.679688 260.859375 213.253906 235.460938 C 212.96875 237.605469 213.105469 239.726562 213.664062 241.816406 C 214.21875 243.90625 215.15625 245.816406 216.464844 247.535156 C 223.945312 257.484375 232.410156 266.507812 241.859375 274.609375 C 242.539062 275.25 243.273438 275.820312 244.058594 276.328125 C 244.84375 276.835938 245.667969 277.269531 246.535156 277.625 C 247.398438 277.984375 248.285156 278.261719 249.199219 278.457031 C 250.113281 278.652344 251.039062 278.765625 251.972656 278.792969 C 252.90625 278.820312 253.835938 278.765625 254.761719 278.625 C 255.683594 278.484375 256.589844 278.261719 257.472656 277.957031 C 258.355469 277.652344 259.207031 277.269531 260.019531 276.8125 C 260.835938 276.355469 261.601562 275.824219 262.320312 275.226562 C 267.566406 270.421875 267.457031 263.058594 263.6875 257.015625 Z M 263.6875 257.015625 " fill-opacity="1" fill-rule="nonzero"/><path fill="#e82d8f" d="M 262.4375 275.34375 C 263.042969 274.757812 263.585938 274.121094 264.074219 273.4375 C 264.5625 272.753906 264.984375 272.027344 265.335938 271.265625 C 265.691406 270.503906 265.972656 269.714844 266.183594 268.898438 C 266.390625 268.085938 266.523438 267.257812 266.582031 266.421875 C 266.640625 265.582031 266.621094 264.746094 266.523438 263.910156 C 266.425781 263.074219 266.253906 262.253906 266.007812 261.449219 C 265.761719 260.648438 265.441406 259.871094 265.050781 259.128906 C 264.664062 258.382812 264.207031 257.679688 263.6875 257.015625 C 262.40625 268.886719 249.71875 267.542969 236.339844 258.796875 C 233.953125 260.230469 231.421875 261.324219 228.742188 262.082031 L 228.742188 262.09375 C 230.800781 264.277344 232.921875 266.410156 235.101562 268.496094 C 237.28125 270.578125 239.527344 272.617188 241.84375 274.609375 C 247.800781 279.710938 256.714844 280.59375 262.4375 275.34375 Z M 262.4375 275.34375 " fill-opacity="1" fill-rule="nonzero"/><path fill="#a4fff0" d="M 252.625 248.964844 C 253.597656 250.222656 254.582031 251.921875 253.78125 253.289062 C 253.519531 253.675781 253.179688 253.976562 252.765625 254.191406 C 252.347656 254.40625 251.90625 254.503906 251.441406 254.488281 C 250.511719 254.449219 249.628906 254.222656 248.796875 253.804688 C 245.320312 252.078125 242.222656 249.828125 239.503906 247.054688 C 236.785156 244.277344 234.601562 241.132812 232.945312 237.621094 C 232.425781 236.726562 232.066406 235.769531 231.875 234.753906 C 231.785156 234.242188 231.808594 233.734375 231.953125 233.234375 C 232.097656 232.730469 232.339844 232.289062 232.691406 231.902344 C 234.386719 230.21875 236.324219 232.230469 237.625 233.324219 C 239.457031 234.871094 241.234375 236.480469 242.957031 238.152344 C 246.433594 241.527344 249.65625 245.132812 252.625 248.964844 Z M 252.625 248.964844 " fill-opacity="1" fill-rule="nonzero"/><path fill="#ff97cc" d="M 252.625 248.964844 C 251.410156 247.394531 250.117188 245.882812 248.8125 244.386719 C 247.757812 246.941406 246.378906 249.308594 244.675781 251.484375 C 245.980469 252.386719 247.355469 253.160156 248.800781 253.808594 C 249.632812 254.222656 250.515625 254.453125 251.441406 254.492188 C 251.910156 254.507812 252.351562 254.40625 252.765625 254.195312 C 253.183594 253.980469 253.523438 253.679688 253.78125 253.292969 C 254.582031 251.921875 253.597656 250.222656 252.625 248.964844 Z M 252.625 248.964844 " fill-opacity="1" fill-rule="nonzero"/><path fill="#a4fff0" d="M 275.433594 208.917969 C 275.207031 209.257812 275.042969 209.625 274.945312 210.023438 C 274.84375 210.421875 274.816406 210.824219 274.855469 211.230469 C 274.894531 211.640625 275.003906 212.027344 275.179688 212.398438 C 275.355469 212.765625 275.589844 213.097656 275.878906 213.386719 C 276.445312 213.808594 277.074219 214.089844 277.765625 214.226562 C 278.460938 214.363281 279.148438 214.34375 279.832031 214.164062 C 282.308594 213.640625 284.574219 212.640625 286.632812 211.164062 C 291.355469 208.027344 295.199219 204.046875 298.160156 199.214844 C 298.671875 198.558594 299.027344 197.832031 299.230469 197.027344 C 299.429688 196.21875 299.460938 195.410156 299.320312 194.589844 C 296.828125 186.648438 277.617188 206.011719 275.433594 208.917969 Z M 275.433594 208.917969 " fill-opacity="1" fill-rule="nonzero"/><path fill="#ff97cc" d="M 277.3125 206.796875 C 276.417969 207.742188 275.742188 208.507812 275.433594 208.917969 C 275.207031 209.257812 275.042969 209.625 274.945312 210.023438 C 274.84375 210.421875 274.816406 210.824219 274.855469 211.230469 C 274.894531 211.640625 275.003906 212.027344 275.179688 212.398438 C 275.355469 212.765625 275.589844 213.097656 275.878906 213.386719 C 276.445312 213.808594 277.074219 214.089844 277.765625 214.226562 C 278.460938 214.363281 279.148438 214.34375 279.832031 214.164062 C 280.355469 214.066406 280.871094 213.9375 281.378906 213.773438 C 279.722656 211.625 278.363281 209.300781 277.3125 206.796875 Z M 277.3125 206.796875 " fill-opacity="1" fill-rule="nonzero"/><path fill="#ffd592" d="M 220.089844 298.289062 C 219.269531 299.074219 218.851562 300.035156 218.839844 301.171875 C 218.902344 301.480469 219.015625 301.773438 219.171875 302.046875 C 219.328125 302.320312 219.523438 302.5625 219.757812 302.773438 C 219.992188 302.988281 220.253906 303.15625 220.542969 303.289062 C 220.832031 303.417969 221.132812 303.5 221.445312 303.53125 C 222.726562 303.640625 223.960938 303.449219 225.148438 302.957031 C 229.320312 301.558594 233.277344 299.710938 237.03125 297.410156 C 239.464844 295.917969 238.851562 293.960938 236.789062 292.382812 C 236.015625 291.847656 235.164062 291.515625 234.234375 291.390625 C 233.304688 291.261719 232.394531 291.355469 231.503906 291.664062 C 229.289062 292.101562 227.199219 292.886719 225.246094 294.023438 C 223.289062 295.15625 221.570312 296.578125 220.089844 298.289062 Z M 220.089844 298.289062 " fill-opacity="1" fill-rule="nonzero"/></svg>