<svg xmlns="http://www.w3.org/2000/svg" xmlns:xlink="http://www.w3.org/1999/xlink" width="500" zoomAndPan="magnify" viewBox="0 0 375 374.999991" height="500" preserveAspectRatio="xMidYMid meet" version="1.0"><defs><clipPath id="2ebeb94c73"><path d="M 69.816406 155 L 292 155 L 292 261 L 69.816406 261 Z M 69.816406 155 " clip-rule="nonzero"/></clipPath></defs><rect x="-37.5" width="450" fill="#ffffff" y="-37.499999" height="449.999989" fill-opacity="1"/><rect x="-37.5" width="450" fill="#ffffff" y="-37.499999" height="449.999989" fill-opacity="1"/><path fill="#72e8d2" d="M 264.757812 177.800781 C 248.621094 193.761719 220.515625 201.617188 206.40625 204.714844 C 224.964844 196.191406 245.691406 181.355469 262.835938 155.757812 C 262.835938 155.753906 269.050781 162.792969 264.757812 177.800781 Z M 264.757812 177.800781 " fill-opacity="1" fill-rule="nonzero"/><g clip-path="url(#2ebeb94c73)"><path fill="#72e8d2" d="M 69.816406 235.964844 C 69.816406 235.964844 87.761719 187.835938 126.636719 182.242188 C 165.519531 176.648438 172.242188 192.683594 215.984375 177.015625 C 215.984375 177.015625 223.457031 200.519531 176.734375 206.488281 C 176.734375 206.488281 171.871094 215.816406 186.453125 215.816406 C 201.03125 215.816406 252.617188 209.3125 288.507812 155.75 C 288.507812 155.75 305.328125 174.777344 264.582031 216.933594 C 223.839844 259.089844 172.25 280.738281 69.816406 235.964844 Z M 69.816406 235.964844 " fill-opacity="1" fill-rule="nonzero"/></g><path fill="#e24065" d="M 227.558594 101.398438 C 220.140625 93.996094 208.121094 93.996094 200.707031 101.398438 L 190.710938 111.367188 L 180.722656 101.398438 C 173.304688 93.996094 161.28125 93.996094 153.871094 101.398438 C 150.160156 105.097656 148.3125 109.945312 148.3125 114.792969 C 148.3125 119.644531 150.167969 124.496094 153.871094 128.195312 L 190.714844 164.96875 L 190.722656 164.96875 L 227.566406 128.195312 C 234.972656 120.792969 234.972656 108.792969 227.558594 101.398438 Z M 204.289062 135.425781 L 195.734375 135.425781 L 195.734375 143.960938 L 185.675781 143.960938 L 185.675781 135.425781 L 177.128906 135.425781 L 177.128906 125.386719 L 185.675781 125.386719 L 185.675781 116.855469 L 195.734375 116.855469 L 195.734375 125.390625 L 204.289062 125.390625 Z M 204.289062 135.425781 " fill-opacity="1" fill-rule="nonzero"/></svg>